<svg version="1.1" xmlns="http://www.w3.org/2000/svg" xmlns:xlink="http://www.w3.org/1999/xlink" stroke-linecap="round" stroke-linejoin="round" stroke-width="0" fill-rule="evenodd" clip-rule="evenodd" id="DVuG0hSAtCo7A9updXP8_bottom" viewBox="83500 -132500 87000 54000" width="87mm" height="54mm" class="w-100 h-100"><defs><style>.DVuG0hSAtCo7A9updXP8_fr4 {color: #666666;}
.DVuG0hSAtCo7A9updXP8_cu {color: #cccccc;}
.DVuG0hSAtCo7A9updXP8_cf {color: #c0c0c0;}
.DVuG0hSAtCo7A9updXP8_sm {color: #063589; opacity: 0.75;}
.DVuG0hSAtCo7A9updXP8_ss {color: #ffffff;}
.DVuG0hSAtCo7A9updXP8_sp {color: #999999;}
.DVuG0hSAtCo7A9updXP8_out {color: #000000;}</style><circle cx="0" cy="0" r="720" id="HLjL03EgtCJwjP3P3Hk9_pad-12"/><circle cx="0" cy="0" r="1300" id="HLjL03EgtCJwjP3P3Hk9_pad-13"/><circle cx="0" cy="0" r="1242" id="HLjL03EgtCJwjP3P3Hk9_pad-14"/><rect x="-750" y="-750" width="1500" height="1500" id="HLjL03EgtCJwjP3P3Hk9_pad-15"/><circle cx="0" cy="0" r="750" id="HLjL03EgtCJwjP3P3Hk9_pad-16"/><rect x="-800" y="-800" width="1600" height="1600" id="HLjL03EgtCJwjP3P3Hk9_pad-17"/><rect x="-800" y="-800" width="1600" height="1600" rx="800" ry="800" id="HLjL03EgtCJwjP3P3Hk9_pad-18"/><rect x="-900" y="-900" width="1800" height="1800" id="HLjL03EgtCJwjP3P3Hk9_pad-19"/><circle cx="0" cy="0" r="900" id="HLjL03EgtCJwjP3P3Hk9_pad-20"/><circle cx="0" cy="0" r="800" id="HLjL03EgtCJwjP3P3Hk9_pad-21"/><mask id="HLjL03EgtCJwjP3P3Hk9_clear-1" fill="#000" stroke="#000"><g><rect x="90000" y="-131088.152" width="79235.771" height="51088.152" fill="#fff"/><use xlink:href="#HLjL03EgtCJwjP3P3Hk9_pad-12" x="124460" y="-121920"/><use xlink:href="#HLjL03EgtCJwjP3P3Hk9_pad-12" x="124460" y="-124460"/><use xlink:href="#HLjL03EgtCJwjP3P3Hk9_pad-12" x="124460" y="-127000"/><use xlink:href="#HLjL03EgtCJwjP3P3Hk9_pad-13" x="87630" y="-127000"/><use xlink:href="#HLjL03EgtCJwjP3P3Hk9_pad-14" x="160970" y="-92710"/><use xlink:href="#HLjL03EgtCJwjP3P3Hk9_pad-14" x="140970" y="-92710"/><use xlink:href="#HLjL03EgtCJwjP3P3Hk9_pad-15" x="119400" y="-109300"/><use xlink:href="#HLjL03EgtCJwjP3P3Hk9_pad-16" x="116860" y="-109300"/><use xlink:href="#HLjL03EgtCJwjP3P3Hk9_pad-16" x="114320" y="-109300"/><use xlink:href="#HLjL03EgtCJwjP3P3Hk9_pad-17" x="99060" y="-119380"/><use xlink:href="#HLjL03EgtCJwjP3P3Hk9_pad-18" x="99060" y="-127000"/><use xlink:href="#HLjL03EgtCJwjP3P3Hk9_pad-19" x="134620" y="-104140"/><use xlink:href="#HLjL03EgtCJwjP3P3Hk9_pad-20" x="134620" y="-101600"/><use xlink:href="#HLjL03EgtCJwjP3P3Hk9_pad-21" x="119380" y="-83820"/><use xlink:href="#HLjL03EgtCJwjP3P3Hk9_pad-18" x="129540" y="-83820"/><use xlink:href="#HLjL03EgtCJwjP3P3Hk9_pad-21" x="114300" y="-115570"/><use xlink:href="#HLjL03EgtCJwjP3P3Hk9_pad-18" x="114300" y="-123190"/><use xlink:href="#HLjL03EgtCJwjP3P3Hk9_pad-15" x="134620" y="-86360"/><use xlink:href="#HLjL03EgtCJwjP3P3Hk9_pad-16" x="134620" y="-83820"/><use xlink:href="#HLjL03EgtCJwjP3P3Hk9_pad-16" x="134620" y="-81280"/><use xlink:href="#HLjL03EgtCJwjP3P3Hk9_pad-21" x="106680" y="-116840"/><use xlink:href="#HLjL03EgtCJwjP3P3Hk9_pad-21" x="106680" y="-121840"/><use xlink:href="#HLjL03EgtCJwjP3P3Hk9_pad-21" x="134620" y="-123190"/><use xlink:href="#HLjL03EgtCJwjP3P3Hk9_pad-18" x="134620" y="-115570"/><use xlink:href="#HLjL03EgtCJwjP3P3Hk9_pad-17" x="106680" y="-109220"/><use xlink:href="#HLjL03EgtCJwjP3P3Hk9_pad-18" x="99060" y="-109220"/><use xlink:href="#HLjL03EgtCJwjP3P3Hk9_pad-13" x="87630" y="-114300"/><use xlink:href="#HLjL03EgtCJwjP3P3Hk9_pad-14" x="144780" y="-118110"/><use xlink:href="#HLjL03EgtCJwjP3P3Hk9_pad-14" x="164780" y="-118110"/></g></mask><circle cx="0" cy="0" r="720" id="NoOIfq-DBruJYPuNxoOQ_pad-10"/><circle cx="0" cy="0" r="1300" id="NoOIfq-DBruJYPuNxoOQ_pad-11"/><circle cx="0" cy="0" r="1140" id="NoOIfq-DBruJYPuNxoOQ_pad-12"/><rect x="-750" y="-750" width="1500" height="1500" id="NoOIfq-DBruJYPuNxoOQ_pad-13"/><circle cx="0" cy="0" r="750" id="NoOIfq-DBruJYPuNxoOQ_pad-14"/><rect x="-800" y="-800" width="1600" height="1600" id="NoOIfq-DBruJYPuNxoOQ_pad-15"/><rect x="-800" y="-800" width="1600" height="1600" rx="800" ry="800" id="NoOIfq-DBruJYPuNxoOQ_pad-16"/><rect x="-900" y="-900" width="1800" height="1800" id="NoOIfq-DBruJYPuNxoOQ_pad-17"/><circle cx="0" cy="0" r="900" id="NoOIfq-DBruJYPuNxoOQ_pad-18"/><circle cx="0" cy="0" r="800" id="NoOIfq-DBruJYPuNxoOQ_pad-19"/><circle cx="0" cy="0" r="720" id="b4xn2tROL9NPUwTfAHFX_pad-10"/><circle cx="0" cy="0" r="1300" id="b4xn2tROL9NPUwTfAHFX_pad-11"/><circle cx="0" cy="0" r="1242" id="b4xn2tROL9NPUwTfAHFX_pad-12"/><rect x="-750" y="-750" width="1500" height="1500" id="b4xn2tROL9NPUwTfAHFX_pad-13"/><circle cx="0" cy="0" r="750" id="b4xn2tROL9NPUwTfAHFX_pad-14"/><rect x="-800" y="-800" width="1600" height="1600" id="b4xn2tROL9NPUwTfAHFX_pad-15"/><rect x="-800" y="-800" width="1600" height="1600" rx="800" ry="800" id="b4xn2tROL9NPUwTfAHFX_pad-16"/><rect x="-900" y="-900" width="1800" height="1800" id="b4xn2tROL9NPUwTfAHFX_pad-17"/><circle cx="0" cy="0" r="900" id="b4xn2tROL9NPUwTfAHFX_pad-18"/><circle cx="0" cy="0" r="800" id="b4xn2tROL9NPUwTfAHFX_pad-19"/><circle cx="0" cy="0" r="400" id="C2Nkd_aoA-cUEIzzrVXc_pad-1"/><circle cx="0" cy="0" r="450" id="C2Nkd_aoA-cUEIzzrVXc_pad-2"/><circle cx="0" cy="0" r="750" id="C2Nkd_aoA-cUEIzzrVXc_pad-3"/><circle cx="0" cy="0" r="760" id="C2Nkd_aoA-cUEIzzrVXc_pad-4"/><g id="DVuG0hSAtCo7A9updXP8_bottom_silkscreen"><g mask="url(#HLjL03EgtCJwjP3P3Hk9_clear-1)"><path d="M 116709.819 -80346.779 115709.819 -80346.779 M 116709.819 -80775.35 116186.009 -80775.35 116090.771 -80727.731 116043.152 -80632.493 116043.152 -80489.636 116090.771 -80394.398 116138.39 -80346.779 M 116709.819 -81251.541 115709.819 -81251.541 M 116090.771 -81251.541 116043.152 -81346.779 116043.152 -81537.255 116090.771 -81632.493 116138.39 -81680.112 116233.628 -81727.731 116519.342 -81727.731 116614.58 -81680.112 116662.2 -81632.493 116709.819 -81537.255 116709.819 -81346.779 116662.2 -81251.541 M 116709.819 -82203.922 116709.819 -82394.398 116662.2 -82489.636 116614.58 -82537.255 116471.723 -82632.493 116281.247 -82680.112 115900.295 -82680.112 115805.057 -82632.493 115757.438 -82584.874 115709.819 -82489.636 115709.819 -82299.16 115757.438 -82203.922 115805.057 -82156.303 115900.295 -82108.684 116138.39 -82108.684 116233.628 -82156.303 116281.247 -82203.922 116328.866 -82299.16 116328.866 -82489.636 116281.247 -82584.874 116233.628 -82632.493 116138.39 -82680.112 M 116043.152 -83537.255 116709.819 -83537.255 M 116043.152 -83108.684 116566.961 -83108.684 116662.2 -83156.303 116709.819 -83251.541 116709.819 -83394.398 116662.2 -83489.636 116614.58 -83537.255 M 116043.152 -83870.589 116043.152 -84251.541 M 116709.819 -84013.446 115852.676 -84013.446 115757.438 -84061.065 115709.819 -84156.303 115709.819 -84251.541 M 116614.58 -84584.875 116662.2 -84632.494 116709.819 -84584.875 116662.2 -84537.256 116614.58 -84584.875 116709.819 -84584.875 M 116662.2 -85489.636 116709.819 -85394.398 116709.819 -85203.922 116662.2 -85108.684 116614.58 -85061.065 116519.342 -85013.446 116233.628 -85013.446 116138.39 -85061.065 116090.771 -85108.684 116043.152 -85203.922 116043.152 -85394.398 116090.771 -85489.636 M 116709.819 -85918.208 115709.819 -85918.208 M 116709.819 -86346.779 116186.009 -86346.779 116090.771 -86299.16 116043.152 -86203.922 116043.152 -86061.065 116090.771 -85965.827 116138.39 -85918.208 M 115662.2 -87537.255 116947.914 -86680.113 M 116662.2 -87822.97 116709.819 -87918.208 116709.819 -88108.684 116662.2 -88203.922 116566.961 -88251.541 116519.342 -88251.541 116424.104 -88203.922 116376.485 -88108.684 116376.485 -87965.827 116328.866 -87870.589 116233.628 -87822.97 116186.009 -87822.97 116090.771 -87870.589 116043.152 -87965.827 116043.152 -88108.684 116090.771 -88203.922 M 116043.152 -88680.113 116709.819 -88680.113 M 116138.39 -88680.113 116090.771 -88727.732 116043.152 -88822.97 116043.152 -88965.827 116090.771 -89061.065 116186.009 -89108.684 116709.819 -89108.684 M 116709.819 -89584.875 116043.152 -89584.875 M 115709.819 -89584.875 115757.438 -89537.256 115805.057 -89584.875 115757.438 -89632.494 115709.819 -89584.875 115805.057 -89584.875 M 116043.152 -89918.208 116043.152 -90299.16 M 115709.819 -90061.065 116566.961 -90061.065 116662.2 -90108.684 116709.819 -90203.922 116709.819 -90299.16 M 116662.2 -91061.065 116709.819 -90965.827 116709.819 -90775.351 116662.2 -90680.113 116614.58 -90632.494 116519.342 -90584.875 116233.628 -90584.875 116138.39 -90632.494 116090.771 -90680.113 116043.152 -90775.351 116043.152 -90965.827 116090.771 -91061.065 M 116709.819 -91489.637 115709.819 -91489.637 M 116709.819 -91918.208 116186.009 -91918.208 116090.771 -91870.589 116043.152 -91775.351 116043.152 -91632.494 116090.771 -91537.256 116138.39 -91489.637 M 114710.839 -106502.2 114567.982 -106549.819 114329.887 -106549.819 114234.649 -106502.2 114187.03 -106454.58 114139.411 -106359.342 114139.411 -106264.104 114187.03 -106168.866 114234.649 -106121.247 114329.887 -106073.628 114520.363 -106026.009 114615.601 -105978.39 114663.22 -105930.771 114710.839 -105835.533 114710.839 -105740.295 114663.22 -105645.057 114615.601 -105597.438 114520.363 -105549.819 114282.268 -105549.819 114139.411 -105597.438 M 113282.268 -106502.2 113377.506 -106549.819 113567.982 -106549.819 113663.22 -106502.2 113710.839 -106454.58 113758.458 -106359.342 113758.458 -106073.628 113710.839 -105978.39 113663.22 -105930.771 113567.982 -105883.152 113377.506 -105883.152 113282.268 -105930.771 M 112425.125 -106549.819 112425.125 -106026.009 112472.744 -105930.771 112567.982 -105883.152 112758.458 -105883.152 112853.696 -105930.771 M 112425.125 -106502.2 112520.363 -106549.819 112758.458 -106549.819 112853.696 -106502.2 112901.315 -106406.961 112901.315 -106311.723 112853.696 -106216.485 112758.458 -106168.866 112520.363 -106168.866 112425.125 -106121.247 M 111948.934 -105883.152 111948.934 -106549.819 M 111948.934 -105978.39 111901.315 -105930.771 111806.077 -105883.152 111663.22 -105883.152 111567.982 -105930.771 111520.363 -106026.009 111520.363 -106549.819 M 109615.601 -106645.057 109710.839 -106597.438 109806.077 -106502.2 109948.934 -106359.342 110044.172 -106311.723 110139.41 -106311.723 M 110091.791 -106549.819 110187.029 -106502.2 110282.267 -106406.961 110329.886 -106216.485 110329.886 -105883.152 110282.267 -105692.676 110187.029 -105597.438 110091.791 -105549.819 109901.315 -105549.819 109806.077 -105597.438 109710.839 -105692.676 109663.22 -105883.152 109663.22 -106216.485 109710.839 -106406.961 109806.077 -106502.2 109901.315 -106549.819 110091.791 -106549.819 M 108663.22 -106549.819 108996.553 -106073.628 M 109234.648 -106549.819 109234.648 -105549.819 108853.696 -105549.819 108758.458 -105597.438 108710.839 -105645.057 108663.22 -105740.295 108663.22 -105883.152 108710.839 -105978.39 108758.458 -106026.009 108853.696 -106073.628 109234.648 -106073.628 M 107044.172 -106502.2 107139.41 -106549.819 107329.886 -106549.819 107425.124 -106502.2 107472.743 -106454.58 107520.362 -106359.342 107520.362 -106073.628 107472.743 -105978.39 107425.124 -105930.771 107329.886 -105883.152 107139.41 -105883.152 107044.172 -105930.771 M 106472.743 -106549.819 106567.981 -106502.2 106615.6 -106454.58 106663.219 -106359.342 106663.219 -106073.628 106615.6 -105978.39 106567.981 -105930.771 106472.743 -105883.152 106329.886 -105883.152 106234.648 -105930.771 106187.029 -105978.39 106139.41 -106073.628 106139.41 -106359.342 106187.029 -106454.58 106234.648 -106502.2 106329.886 -106549.819 106472.743 -106549.819 M 105282.267 -106549.819 105282.267 -105549.819 M 105282.267 -106502.2 105377.505 -106549.819 105567.981 -106549.819 105663.219 -106502.2 105710.838 -106454.58 105758.457 -106359.342 105758.457 -106073.628 105710.838 -105978.39 105663.219 -105930.771 105567.981 -105883.152 105377.505 -105883.152 105282.267 -105930.771 M 104425.124 -106502.2 104520.362 -106549.819 104710.838 -106549.819 104806.076 -106502.2 104853.695 -106406.961 104853.695 -106026.009 104806.076 -105930.771 104710.838 -105883.152 104520.362 -105883.152 104425.124 -105930.771 104377.505 -106026.009 104377.505 -106121.247 104853.695 -106216.485 M 103329.885 -105883.152 102948.933 -105883.152 M 103187.028 -106549.819 103187.028 -105692.676 103139.409 -105597.438 103044.171 -105549.819 102948.933 -105549.819 M 102472.742 -106549.819 102567.98 -106502.2 102615.599 -106454.58 102663.218 -106359.342 102663.218 -106073.628 102615.599 -105978.39 102567.98 -105930.771 102472.742 -105883.152 102329.885 -105883.152 102234.647 -105930.771 102187.028 -105978.39 102139.409 -106073.628 102139.409 -106359.342 102187.028 -106454.58 102234.647 -106502.2 102329.885 -106549.819 102472.742 -106549.819 M 101710.837 -106549.819 101710.837 -105883.152 M 101710.837 -106073.628 101663.218 -105978.39 101615.599 -105930.771 101520.361 -105883.152 101425.123 -105883.152 M 100329.884 -106549.819 100329.884 -105883.152 M 100329.884 -105549.819 100377.503 -105597.438 100329.884 -105645.057 100282.265 -105597.438 100329.884 -105549.819 100329.884 -105645.057 M 99853.694 -105883.152 99853.694 -106549.819 M 99853.694 -105978.39 99806.075 -105930.771 99710.837 -105883.152 99567.98 -105883.152 99472.742 -105930.771 99425.123 -106026.009 99425.123 -106549.819 M 98996.551 -106502.2 98901.313 -106549.819 98710.837 -106549.819 98615.599 -106502.2 98567.98 -106406.961 98567.98 -106359.342 98615.599 -106264.104 98710.837 -106216.485 98853.694 -106216.485 98948.932 -106168.866 98996.551 -106073.628 98996.551 -106026.009 98948.932 -105930.771 98853.694 -105883.152 98710.837 -105883.152 98615.599 -105930.771 M 98282.265 -105883.152 97901.313 -105883.152 M 98139.408 -105549.819 98139.408 -106406.961 98091.789 -106502.2 97996.551 -106549.819 97901.313 -106549.819 M 97567.979 -106549.819 97567.979 -105883.152 M 97567.979 -106073.628 97520.36 -105978.39 97472.741 -105930.771 97377.503 -105883.152 97282.265 -105883.152 M 96520.36 -105883.152 96520.36 -106549.819 M 96948.931 -105883.152 96948.931 -106406.961 96901.312 -106502.2 96806.074 -106549.819 96663.217 -106549.819 96567.979 -106502.2 96520.36 -106454.58 M 95615.598 -106502.2 95710.836 -106549.819 95901.312 -106549.819 95996.55 -106502.2 96044.169 -106454.58 96091.788 -106359.342 96091.788 -106073.628 96044.169 -105978.39 95996.55 -105930.771 95901.312 -105883.152 95710.836 -105883.152 95615.598 -105930.771 M 95329.883 -105883.152 94948.931 -105883.152 M 95187.026 -105549.819 95187.026 -106406.961 95139.407 -106502.2 95044.169 -106549.819 94948.931 -106549.819 M 94615.597 -106549.819 94615.597 -105883.152 M 94615.597 -105549.819 94663.216 -105597.438 94615.597 -105645.057 94567.978 -105597.438 94615.597 -105549.819 94615.597 -105645.057 M 93996.55 -106549.819 94091.788 -106502.2 94139.407 -106454.58 94187.026 -106359.342 94187.026 -106073.628 94139.407 -105978.39 94091.788 -105930.771 93996.55 -105883.152 93853.693 -105883.152 93758.455 -105930.771 93710.836 -105978.39 93663.217 -106073.628 93663.217 -106359.342 93710.836 -106454.58 93758.455 -106502.2 93853.693 -106549.819 93996.55 -106549.819 M 93234.645 -105883.152 93234.645 -106549.819 M 93234.645 -105978.39 93187.026 -105930.771 93091.788 -105883.152 92948.931 -105883.152 92853.693 -105930.771 92806.074 -106026.009 92806.074 -106549.819 M 92377.502 -106502.2 92282.264 -106549.819 92091.788 -106549.819 91996.55 -106502.2 91948.931 -106406.961 91948.931 -106359.342 91996.55 -106264.104 92091.788 -106216.485 92234.645 -106216.485 92329.883 -106168.866 92377.502 -106073.628 92377.502 -106026.009 92329.883 -105930.771 92234.645 -105883.152 92091.788 -105883.152 91996.55 -105930.771 M 91520.359 -106454.58 91472.74 -106502.2 91520.359 -106549.819 91567.978 -106502.2 91520.359 -106454.58 91520.359 -106549.819 M 91520.359 -106168.866 91567.978 -105597.438 91520.359 -105549.819 91472.74 -105597.438 91520.359 -106168.866 91520.359 -105549.819 M 158413.22 -130156.009 158079.887 -130156.009 M 157937.03 -130679.819 158413.22 -130679.819 158413.22 -129679.819 157937.03 -129679.819 M 157603.696 -130013.152 157365.601 -130679.819 157127.506 -130013.152 M 156365.601 -130632.2 156460.839 -130679.819 156651.315 -130679.819 156746.553 -130632.2 156794.172 -130536.961 156794.172 -130156.009 156746.553 -130060.771 156651.315 -130013.152 156460.839 -130013.152 156365.601 -130060.771 156317.982 -130156.009 156317.982 -130251.247 156794.172 -130346.485 M 155889.41 -130679.819 155889.41 -130013.152 M 155889.41 -130203.628 155841.791 -130108.39 155794.172 -130060.771 155698.934 -130013.152 155603.696 -130013.152 M 155365.6 -130013.152 155127.505 -130679.819 M 154889.41 -130013.152 155127.505 -130679.819 155222.743 -130917.914 155270.362 -130965.533 155365.6 -131013.152 M 153746.552 -130679.819 153746.552 -130013.152 M 153746.552 -130108.39 153698.933 -130060.771 153603.695 -130013.152 153460.838 -130013.152 153365.6 -130060.771 153317.981 -130156.009 153317.981 -130679.819 M 153317.981 -130156.009 153270.362 -130060.771 153175.124 -130013.152 153032.267 -130013.152 152937.028 -130060.771 152889.409 -130156.009 152889.409 -130679.819 M 151984.648 -130679.819 151984.648 -130156.009 152032.267 -130060.771 152127.505 -130013.152 152317.981 -130013.152 152413.219 -130060.771 M 151984.648 -130632.2 152079.886 -130679.819 152317.981 -130679.819 152413.219 -130632.2 152460.838 -130536.961 152460.838 -130441.723 152413.219 -130346.485 152317.981 -130298.866 152079.886 -130298.866 151984.648 -130251.247 M 151079.886 -130632.2 151175.124 -130679.819 151365.6 -130679.819 151460.838 -130632.2 151508.457 -130584.58 151556.076 -130489.342 151556.076 -130203.628 151508.457 -130108.39 151460.838 -130060.771 151365.6 -130013.152 151175.124 -130013.152 151079.886 -130060.771 M 150651.314 -130679.819 150651.314 -129679.819 M 150222.743 -130679.819 150222.743 -130156.009 150270.362 -130060.771 150365.6 -130013.152 150508.457 -130013.152 150603.695 -130060.771 150651.314 -130108.39 M 149746.552 -130679.819 149746.552 -130013.152 M 149746.552 -129679.819 149794.171 -129727.438 149746.552 -129775.057 149698.933 -129727.438 149746.552 -129679.819 149746.552 -129775.057 M 149270.362 -130013.152 149270.362 -130679.819 M 149270.362 -130108.39 149222.743 -130060.771 149127.505 -130013.152 148984.648 -130013.152 148889.41 -130060.771 148841.791 -130156.009 148841.791 -130679.819 M 147984.648 -130632.2 148079.886 -130679.819 148270.362 -130679.819 148365.6 -130632.2 148413.219 -130536.961 148413.219 -130156.009 148365.6 -130060.771 148270.362 -130013.152 148079.886 -130013.152 147984.648 -130060.771 147937.029 -130156.009 147937.029 -130251.247 148413.219 -130346.485 M 146746.552 -130679.819 146746.552 -130013.152 M 146746.552 -129679.819 146794.171 -129727.438 146746.552 -129775.057 146698.933 -129727.438 146746.552 -129679.819 146746.552 -129775.057 M 146317.981 -130632.2 146222.743 -130679.819 146032.267 -130679.819 145937.029 -130632.2 145889.41 -130536.961 145889.41 -130489.342 145937.029 -130394.104 146032.267 -130346.485 146175.124 -130346.485 146270.362 -130298.866 146317.981 -130203.628 146317.981 -130156.009 146270.362 -130060.771 146175.124 -130013.152 146032.267 -130013.152 145937.029 -130060.771 M 144270.362 -130679.819 144270.362 -130156.009 144317.981 -130060.771 144413.219 -130013.152 144603.695 -130013.152 144698.933 -130060.771 M 144270.362 -130632.2 144365.6 -130679.819 144603.695 -130679.819 144698.933 -130632.2 144746.552 -130536.961 144746.552 -130441.723 144698.933 -130346.485 144603.695 -130298.866 144365.6 -130298.866 144270.362 -130251.247 M 143079.885 -130632.2 142984.647 -130679.819 142794.171 -130679.819 142698.933 -130632.2 142651.314 -130536.961 142651.314 -130489.342 142698.933 -130394.104 142794.171 -130346.485 142937.028 -130346.485 143032.266 -130298.866 143079.885 -130203.628 143079.885 -130156.009 143032.266 -130060.771 142937.028 -130013.152 142794.171 -130013.152 142698.933 -130060.771 M 142222.742 -130679.819 142222.742 -130013.152 M 142222.742 -130108.39 142175.123 -130060.771 142079.885 -130013.152 141937.028 -130013.152 141841.79 -130060.771 141794.171 -130156.009 141794.171 -130679.819 M 141794.171 -130156.009 141746.552 -130060.771 141651.314 -130013.152 141508.457 -130013.152 141413.218 -130060.771 141365.599 -130156.009 141365.599 -130679.819 M 140746.552 -130679.819 140841.79 -130632.2 140889.409 -130584.58 140937.028 -130489.342 140937.028 -130203.628 140889.409 -130108.39 140841.79 -130060.771 140746.552 -130013.152 140603.695 -130013.152 140508.457 -130060.771 140460.838 -130108.39 140413.219 -130203.628 140413.219 -130489.342 140460.838 -130584.58 140508.457 -130632.2 140603.695 -130679.819 140746.552 -130679.819 M 139984.647 -130679.819 139984.647 -129679.819 M 139889.409 -130298.866 139603.695 -130679.819 M 139603.695 -130013.152 139984.647 -130394.104 M 138794.171 -130632.2 138889.409 -130679.819 139079.885 -130679.819 139175.123 -130632.2 139222.742 -130536.961 139222.742 -130156.009 139175.123 -130060.771 139079.885 -130013.152 138889.409 -130013.152 138794.171 -130060.771 138746.552 -130156.009 138746.552 -130251.247 139222.742 -130346.485 M 137556.075 -130679.819 137556.075 -130013.152 M 137556.075 -130108.39 137508.456 -130060.771 137413.218 -130013.152 137270.361 -130013.152 137175.123 -130060.771 137127.504 -130156.009 137127.504 -130679.819 M 137127.504 -130156.009 137079.885 -130060.771 136984.647 -130013.152 136841.79 -130013.152 136746.551 -130060.771 136698.932 -130156.009 136698.932 -130679.819 M 135794.171 -130679.819 135794.171 -130156.009 135841.79 -130060.771 135937.028 -130013.152 136127.504 -130013.152 136222.742 -130060.771 M 135794.171 -130632.2 135889.409 -130679.819 136127.504 -130679.819 136222.742 -130632.2 136270.361 -130536.961 136270.361 -130441.723 136222.742 -130346.485 136127.504 -130298.866 135889.409 -130298.866 135794.171 -130251.247 M 134889.409 -130632.2 134984.647 -130679.819 135175.123 -130679.819 135270.361 -130632.2 135317.98 -130584.58 135365.599 -130489.342 135365.599 -130203.628 135317.98 -130108.39 135270.361 -130060.771 135175.123 -130013.152 134984.647 -130013.152 134889.409 -130060.771 M 134460.837 -130679.819 134460.837 -129679.819 M 134032.266 -130679.819 134032.266 -130156.009 134079.885 -130060.771 134175.123 -130013.152 134317.98 -130013.152 134413.218 -130060.771 134460.837 -130108.39 M 133556.075 -130679.819 133556.075 -130013.152 M 133556.075 -129679.819 133603.694 -129727.438 133556.075 -129775.057 133508.456 -129727.438 133556.075 -129679.819 133556.075 -129775.057 M 133079.885 -130013.152 133079.885 -130679.819 M 133079.885 -130108.39 133032.266 -130060.771 132937.028 -130013.152 132794.171 -130013.152 132698.933 -130060.771 132651.314 -130156.009 132651.314 -130679.819 M 131794.171 -130632.2 131889.409 -130679.819 132079.885 -130679.819 132175.123 -130632.2 132222.742 -130536.961 132222.742 -130156.009 132175.123 -130060.771 132079.885 -130013.152 131889.409 -130013.152 131794.171 -130060.771 131746.552 -130156.009 131746.552 -130251.247 132222.742 -130346.485 M 130556.075 -130679.819 130556.075 -130013.152 M 130556.075 -129679.819 130603.694 -129727.438 130556.075 -129775.057 130508.456 -129727.438 130556.075 -129679.819 130556.075 -129775.057 M 130222.742 -130013.152 129841.79 -130013.152 M 130079.885 -130679.819 130079.885 -129822.676 130032.266 -129727.438 129937.028 -129679.819 129841.79 -129679.819 M 128841.789 -130013.152 128603.694 -130679.819 M 128365.599 -130013.152 128603.694 -130679.819 128698.932 -130917.914 128746.551 -130965.533 128841.789 -131013.152 M 127841.789 -130679.819 127937.027 -130632.2 127984.646 -130584.58 128032.265 -130489.342 128032.265 -130203.628 127984.646 -130108.39 127937.027 -130060.771 127841.789 -130013.152 127698.932 -130013.152 127603.694 -130060.771 127556.075 -130108.39 127508.456 -130203.628 127508.456 -130489.342 127556.075 -130584.58 127603.694 -130632.2 127698.932 -130679.819 127841.789 -130679.819 M 126651.313 -130013.152 126651.313 -130679.819 M 127079.884 -130013.152 127079.884 -130536.961 127032.265 -130632.2 126937.027 -130679.819 126794.17 -130679.819 126698.932 -130632.2 126651.313 -130584.58 M 125270.36 -130679.819 125365.598 -130632.2 125413.217 -130584.58 125460.836 -130489.342 125460.836 -130203.628 125413.217 -130108.39 125365.598 -130060.771 125270.36 -130013.152 125127.503 -130013.152 125032.265 -130060.771 124984.646 -130108.39 124937.027 -130203.628 124937.027 -130489.342 124984.646 -130584.58 125032.265 -130632.2 125127.503 -130679.819 125270.36 -130679.819 M 124508.455 -130013.152 124508.455 -131013.152 M 124508.455 -130060.771 124413.217 -130013.152 124222.741 -130013.152 124127.503 -130060.771 124079.884 -130108.39 124032.265 -130203.628 124032.265 -130489.342 124079.884 -130584.58 124127.503 -130632.2 124222.741 -130679.819 124413.217 -130679.819 124508.455 -130632.2 M 123222.741 -130632.2 123317.979 -130679.819 123508.455 -130679.819 123603.693 -130632.2 123651.312 -130536.961 123651.312 -130156.009 123603.693 -130060.771 123508.455 -130013.152 123317.979 -130013.152 123222.741 -130060.771 123175.122 -130156.009 123175.122 -130251.247 123651.312 -130346.485 M 122746.55 -130679.819 122746.55 -130013.152 M 122746.55 -130203.628 122698.931 -130108.39 122651.312 -130060.771 122556.074 -130013.152 122460.836 -130013.152 M 121698.931 -130679.819 121698.931 -130156.009 121746.55 -130060.771 121841.788 -130013.152 122032.264 -130013.152 122127.502 -130060.771 M 121698.931 -130632.2 121794.169 -130679.819 122032.264 -130679.819 122127.502 -130632.2 122175.121 -130536.961 122175.121 -130441.723 122127.502 -130346.485 122032.264 -130298.866 121794.169 -130298.866 121698.931 -130251.247 M 121365.597 -130013.152 120984.645 -130013.152 M 121222.74 -129679.819 121222.74 -130536.961 121175.121 -130632.2 121079.883 -130679.819 120984.645 -130679.819 M 120270.359 -130632.2 120365.597 -130679.819 120556.073 -130679.819 120651.311 -130632.2 120698.93 -130536.961 120698.93 -130156.009 120651.311 -130060.771 120556.073 -130013.152 120365.597 -130013.152 120270.359 -130060.771 120222.74 -130156.009 120222.74 -130251.247 120698.93 -130346.485 M 119032.263 -130679.819 119032.263 -130013.152 M 119032.263 -129679.819 119079.882 -129727.438 119032.263 -129775.057 118984.644 -129727.438 119032.263 -129679.819 119032.263 -129775.057 M 118698.93 -130013.152 118317.978 -130013.152 M 118556.073 -129679.819 118556.073 -130536.961 118508.454 -130632.2 118413.216 -130679.819 118317.978 -130679.819 M 117317.977 -130013.152 117127.501 -130679.819 116937.025 -130203.628 116746.549 -130679.819 116556.073 -130013.152 M 116175.12 -130679.819 116175.12 -130013.152 M 116175.12 -130203.628 116127.501 -130108.39 116079.882 -130060.771 115984.644 -130013.152 115889.406 -130013.152 M 115413.215 -130679.819 115508.453 -130632.2 115556.072 -130584.58 115603.691 -130489.342 115603.691 -130203.628 115556.072 -130108.39 115508.453 -130060.771 115413.215 -130013.152 115270.358 -130013.152 115175.12 -130060.771 115127.501 -130108.39 115079.882 -130203.628 115079.882 -130489.342 115127.501 -130584.58 115175.12 -130632.2 115270.358 -130679.819 115413.215 -130679.819 M 114651.31 -130013.152 114651.31 -130679.819 M 114651.31 -130108.39 114603.691 -130060.771 114508.453 -130013.152 114365.596 -130013.152 114270.358 -130060.771 114222.739 -130156.009 114222.739 -130679.819 M 113317.977 -130013.152 113317.977 -130822.676 113365.596 -130917.914 113413.215 -130965.533 113508.453 -131013.152 113651.31 -131013.152 113746.548 -130965.533 M 113317.977 -130632.2 113413.215 -130679.819 113603.691 -130679.819 113698.929 -130632.2 113746.548 -130584.58 113794.167 -130489.342 113794.167 -130203.628 113746.548 -130108.39 113698.929 -130060.771 113603.691 -130013.152 113413.215 -130013.152 113317.977 -130060.771 M 111698.929 -130632.2 111794.167 -130679.819 111984.643 -130679.819 112079.881 -130632.2 112127.5 -130536.961 112127.5 -130156.009 112079.881 -130060.771 111984.643 -130013.152 111794.167 -130013.152 111698.929 -130060.771 111651.31 -130156.009 111651.31 -130251.247 112127.5 -130346.485 M 111222.738 -130013.152 111222.738 -130679.819 M 111222.738 -130108.39 111175.119 -130060.771 111079.881 -130013.152 110937.024 -130013.152 110841.786 -130060.771 110794.167 -130156.009 110794.167 -130679.819 M 110175.119 -130679.819 110270.357 -130632.2 110317.976 -130584.58 110365.595 -130489.342 110365.595 -130203.628 110317.976 -130108.39 110270.357 -130060.771 110175.119 -130013.152 110032.262 -130013.152 109937.024 -130060.771 109889.405 -130108.39 109841.786 -130203.628 109841.786 -130489.342 109889.405 -130584.58 109937.024 -130632.2 110032.262 -130679.819 110175.119 -130679.819 M 108984.643 -130013.152 108984.643 -130679.819 M 109413.214 -130013.152 109413.214 -130536.961 109365.595 -130632.2 109270.357 -130679.819 109127.5 -130679.819 109032.262 -130632.2 108984.643 -130584.58 M 108079.881 -130013.152 108079.881 -130822.676 108127.5 -130917.914 108175.119 -130965.533 108270.357 -131013.152 108413.214 -131013.152 108508.452 -130965.533 M 108079.881 -130632.2 108175.119 -130679.819 108365.595 -130679.819 108460.833 -130632.2 108508.452 -130584.58 108556.071 -130489.342 108556.071 -130203.628 108508.452 -130108.39 108460.833 -130060.771 108365.595 -130013.152 108175.119 -130013.152 108079.881 -130060.771 M 107603.69 -130679.819 107603.69 -129679.819 M 107175.119 -130679.819 107175.119 -130156.009 107222.738 -130060.771 107317.976 -130013.152 107460.833 -130013.152 107556.071 -130060.771 107603.69 -130108.39 M 105175.118 -130298.866 104413.214 -130298.866 M 102746.547 -130679.819 102746.547 -130156.009 102794.166 -130060.771 102889.404 -130013.152 103079.88 -130013.152 103175.118 -130060.771 M 102746.547 -130632.2 102841.785 -130679.819 103079.88 -130679.819 103175.118 -130632.2 103222.737 -130536.961 103222.737 -130441.723 103175.118 -130346.485 103079.88 -130298.866 102841.785 -130298.866 102746.547 -130251.247 M 101603.689 -130013.152 101413.213 -130679.819 101222.737 -130203.628 101032.261 -130679.819 100841.785 -130013.152 M 100460.832 -130679.819 100460.832 -130013.152 M 100460.832 -129679.819 100508.451 -129727.438 100460.832 -129775.057 100413.213 -129727.438 100460.832 -129679.819 100460.832 -129775.057 M 100032.261 -130632.2 99937.023 -130679.819 99746.547 -130679.819 99651.309 -130632.2 99603.69 -130536.961 99603.69 -130489.342 99651.309 -130394.104 99746.547 -130346.485 99889.404 -130346.485 99984.642 -130298.866 100032.261 -130203.628 100032.261 -130156.009 99984.642 -130060.771 99889.404 -130013.152 99746.547 -130013.152 99651.309 -130060.771 M 98794.166 -130632.2 98889.404 -130679.819 99079.88 -130679.819 99175.118 -130632.2 99222.737 -130536.961 99222.737 -130156.009 99175.118 -130060.771 99079.88 -130013.152 98889.404 -130013.152 98794.166 -130060.771 98746.547 -130156.009 98746.547 -130251.247 99222.737 -130346.485 M 97556.07 -130013.152 97556.07 -131013.152 M 97556.07 -130060.771 97460.832 -130013.152 97270.356 -130013.152 97175.118 -130060.771 97127.499 -130108.39 97079.88 -130203.628 97079.88 -130489.342 97127.499 -130584.58 97175.118 -130632.2 97270.356 -130679.819 97460.832 -130679.819 97556.07 -130632.2 M 96270.356 -130632.2 96365.594 -130679.819 96556.07 -130679.819 96651.308 -130632.2 96698.927 -130536.961 96698.927 -130156.009 96651.308 -130060.771 96556.07 -130013.152 96365.594 -130013.152 96270.356 -130060.771 96222.737 -130156.009 96222.737 -130251.247 96698.927 -130346.485 M 95794.165 -130679.819 95794.165 -130013.152 M 95794.165 -130203.628 95746.546 -130108.39 95698.927 -130060.771 95603.689 -130013.152 95508.451 -130013.152 M 95222.736 -130632.2 95127.498 -130679.819 94937.022 -130679.819 94841.784 -130632.2 94794.165 -130536.961 94794.165 -130489.342 94841.784 -130394.104 94937.022 -130346.485 95079.879 -130346.485 95175.117 -130298.866 95222.736 -130203.628 95222.736 -130156.009 95175.117 -130060.771 95079.879 -130013.152 94937.022 -130013.152 94841.784 -130060.771 M 94222.736 -130679.819 94317.974 -130632.2 94365.593 -130584.58 94413.212 -130489.342 94413.212 -130203.628 94365.593 -130108.39 94317.974 -130060.771 94222.736 -130013.152 94079.879 -130013.152 93984.641 -130060.771 93937.022 -130108.39 93889.403 -130203.628 93889.403 -130489.342 93937.022 -130584.58 93984.641 -130632.2 94079.879 -130679.819 94222.736 -130679.819 M 93460.831 -130013.152 93460.831 -130679.819 M 93460.831 -130108.39 93413.212 -130060.771 93317.974 -130013.152 93175.117 -130013.152 93079.879 -130060.771 93032.26 -130156.009 93032.26 -130679.819 M 169160.771 -84442.493 169113.152 -84394.874 168970.295 -84299.636 168875.057 -84252.017 168732.2 -84204.398 168494.104 -84156.779 168303.628 -84156.779 168065.533 -84204.398 167922.676 -84252.017 167827.438 -84299.636 167684.58 -84394.874 167636.961 -84442.493 M 167779.819 -84680.589 167779.819 -85252.017 M 168779.819 -84966.303 167779.819 -84966.303 M 168779.819 -85585.351 167779.819 -85585.351 M 168779.819 -86013.922 168256.009 -86013.922 168160.771 -85966.303 168113.152 -85871.065 168113.152 -85728.208 168160.771 -85632.97 168208.39 -85585.351 M 168779.819 -86490.113 168113.152 -86490.113 M 167779.819 -86490.113 167827.438 -86442.494 167875.057 -86490.113 167827.438 -86537.732 167779.819 -86490.113 167875.057 -86490.113 M 168732.2 -86918.684 168779.819 -87013.922 168779.819 -87204.398 168732.2 -87299.636 168636.961 -87347.255 168589.342 -87347.255 168494.104 -87299.636 168446.485 -87204.398 168446.485 -87061.541 168398.866 -86966.303 168303.628 -86918.684 168256.009 -86918.684 168160.771 -86966.303 168113.152 -87061.541 168113.152 -87204.398 168160.771 -87299.636 M 168779.819 -88537.732 168113.152 -88537.732 M 167779.819 -88537.732 167827.438 -88490.113 167875.057 -88537.732 167827.438 -88585.351 167779.819 -88537.732 167875.057 -88537.732 M 168732.2 -88966.303 168779.819 -89061.541 168779.819 -89252.017 168732.2 -89347.255 168636.961 -89394.874 168589.342 -89394.874 168494.104 -89347.255 168446.485 -89252.017 168446.485 -89109.16 168398.866 -89013.922 168303.628 -88966.303 168256.009 -88966.303 168160.771 -89013.922 168113.152 -89109.16 168113.152 -89252.017 168160.771 -89347.255 M 168113.152 -90442.494 168113.152 -90823.446 M 167779.819 -90585.351 168636.961 -90585.351 168732.2 -90632.97 168779.819 -90728.208 168779.819 -90823.446 M 168779.819 -91156.78 167779.819 -91156.78 M 168779.819 -91585.351 168256.009 -91585.351 168160.771 -91537.732 168113.152 -91442.494 168113.152 -91299.637 168160.771 -91204.399 168208.39 -91156.78 M 168732.2 -92442.494 168779.819 -92347.256 168779.819 -92156.78 168732.2 -92061.542 168636.961 -92013.923 168256.009 -92013.923 168160.771 -92061.542 168113.152 -92156.78 168113.152 -92347.256 168160.771 -92442.494 168256.009 -92490.113 168351.247 -92490.113 168446.485 -92013.923 M 168732.2 -93632.971 168779.819 -93728.209 168779.819 -93918.685 168732.2 -94013.923 168636.961 -94061.542 168589.342 -94061.542 168494.104 -94013.923 168446.485 -93918.685 168446.485 -93775.828 168398.866 -93680.59 168303.628 -93632.971 168256.009 -93632.971 168160.771 -93680.59 168113.152 -93775.828 168113.152 -93918.685 168160.771 -94013.923 M 168779.819 -94490.114 168113.152 -94490.114 M 167779.819 -94490.114 167827.438 -94442.495 167875.057 -94490.114 167827.438 -94537.733 167779.819 -94490.114 167875.057 -94490.114 M 168779.819 -95394.875 167779.819 -95394.875 M 168732.2 -95394.875 168779.819 -95299.637 168779.819 -95109.161 168732.2 -95013.923 168684.58 -94966.304 168589.342 -94918.685 168303.628 -94918.685 168208.39 -94966.304 168160.771 -95013.923 168113.152 -95109.161 168113.152 -95299.637 168160.771 -95394.875 M 168732.2 -96252.018 168779.819 -96156.78 168779.819 -95966.304 168732.2 -95871.066 168636.961 -95823.447 168256.009 -95823.447 168160.771 -95871.066 168113.152 -95966.304 168113.152 -96156.78 168160.771 -96252.018 168256.009 -96299.637 168351.247 -96299.637 168446.485 -95823.447 M 168113.152 -97394.876 168779.819 -97585.352 168303.628 -97775.828 168779.819 -97966.304 168113.152 -98156.78 M 168779.819 -98537.733 167779.819 -98537.733 M 168779.819 -98966.304 168256.009 -98966.304 168160.771 -98918.685 168113.152 -98823.447 168113.152 -98680.59 168160.771 -98585.352 168208.39 -98537.733 M 168732.2 -99823.447 168779.819 -99728.209 168779.819 -99537.733 168732.2 -99442.495 168636.961 -99394.876 168256.009 -99394.876 168160.771 -99442.495 168113.152 -99537.733 168113.152 -99728.209 168160.771 -99823.447 168256.009 -99871.066 168351.247 -99871.066 168446.485 -99394.876 M 168779.819 -100299.638 168113.152 -100299.638 M 168303.628 -100299.638 168208.39 -100347.257 168160.771 -100394.876 168113.152 -100490.114 168113.152 -100585.352 M 168732.2 -101299.638 168779.819 -101204.4 168779.819 -101013.924 168732.2 -100918.686 168636.961 -100871.067 168256.009 -100871.067 168160.771 -100918.686 168113.152 -101013.924 168113.152 -101204.4 168160.771 -101299.638 168256.009 -101347.257 168351.247 -101347.257 168446.485 -100871.067 M 168113.152 -102442.496 168779.819 -102680.591 M 168113.152 -102918.686 168779.819 -102680.591 169017.914 -102585.353 169065.533 -102537.734 169113.152 -102442.496 M 168779.819 -103442.496 168732.2 -103347.258 168684.58 -103299.639 168589.342 -103252.02 168303.628 -103252.02 168208.39 -103299.639 168160.771 -103347.258 168113.152 -103442.496 168113.152 -103585.353 168160.771 -103680.591 168208.39 -103728.21 168303.628 -103775.829 168589.342 -103775.829 168684.58 -103728.21 168732.2 -103680.591 168779.819 -103585.353 168779.819 -103442.496 M 168113.152 -104632.972 168779.819 -104632.972 M 168113.152 -104204.401 168636.961 -104204.401 168732.2 -104252.02 168779.819 -104347.258 168779.819 -104490.115 168732.2 -104585.353 168684.58 -104632.972 M 168732.2 -105823.449 168779.819 -105918.687 168779.819 -106109.163 168732.2 -106204.401 168636.961 -106252.02 168589.342 -106252.02 168494.104 -106204.401 168446.485 -106109.163 168446.485 -105966.306 168398.866 -105871.068 168303.628 -105823.449 168256.009 -105823.449 168160.771 -105871.068 168113.152 -105966.306 168113.152 -106109.163 168160.771 -106204.401 M 168779.819 -106823.449 168732.2 -106728.211 168684.58 -106680.592 168589.342 -106632.973 168303.628 -106632.973 168208.39 -106680.592 168160.771 -106728.211 168113.152 -106823.449 168113.152 -106966.306 168160.771 -107061.544 168208.39 -107109.163 168303.628 -107156.782 168589.342 -107156.782 168684.58 -107109.163 168732.2 -107061.544 168779.819 -106966.306 168779.819 -106823.449 M 168779.819 -107728.211 168732.2 -107632.973 168636.961 -107585.354 167779.819 -107585.354 M 168779.819 -108537.735 167779.819 -108537.735 M 168732.2 -108537.735 168779.819 -108442.497 168779.819 -108252.021 168732.2 -108156.783 168684.58 -108109.164 168589.342 -108061.545 168303.628 -108061.545 168208.39 -108109.164 168160.771 -108156.783 168113.152 -108252.021 168113.152 -108442.497 168160.771 -108537.735 M 168732.2 -109394.878 168779.819 -109299.64 168779.819 -109109.164 168732.2 -109013.926 168636.961 -108966.307 168256.009 -108966.307 168160.771 -109013.926 168113.152 -109109.164 168113.152 -109299.64 168160.771 -109394.878 168256.009 -109442.497 168351.247 -109442.497 168446.485 -108966.307 M 168779.819 -109871.069 168113.152 -109871.069 M 168303.628 -109871.069 168208.39 -109918.688 168160.771 -109966.307 168113.152 -110061.545 168113.152 -110156.783 M 168684.58 -110490.117 168732.2 -110537.736 168779.819 -110490.117 168732.2 -110442.498 168684.58 -110490.117 168779.819 -110490.117 M 168779.819 -111728.212 167779.819 -111728.212 167779.819 -111966.307 167827.438 -112109.164 167922.676 -112204.402 168017.914 -112252.021 168208.39 -112299.64 168351.247 -112299.64 168541.723 -112252.021 168636.961 -112204.402 168732.2 -112109.164 168779.819 -111966.307 168779.819 -111728.212 M 168779.819 -112871.069 168732.2 -112775.831 168684.58 -112728.212 168589.342 -112680.593 168303.628 -112680.593 168208.39 -112728.212 168160.771 -112775.831 168113.152 -112871.069 168113.152 -113013.926 168160.771 -113109.164 168208.39 -113156.783 168303.628 -113204.402 168589.342 -113204.402 168684.58 -113156.783 168732.2 -113109.164 168779.819 -113013.926 168779.819 -112871.069 M 168113.152 -113632.974 168779.819 -113632.974 M 168208.39 -113632.974 168160.771 -113680.593 168113.152 -113775.831 168113.152 -113918.688 168160.771 -114013.926 168256.009 -114061.545 168779.819 -114061.545 M 167779.819 -114585.355 167970.295 -114490.117 M 168113.152 -114871.069 168113.152 -115252.021 M 167779.819 -115013.926 168636.961 -115013.926 168732.2 -115061.545 168779.819 -115156.783 168779.819 -115252.021 M 168779.819 -116347.26 167779.819 -116347.26 M 168160.771 -116347.26 168113.152 -116442.498 168113.152 -116632.974 168160.771 -116728.212 168208.39 -116775.831 168303.628 -116823.45 168589.342 -116823.45 168684.58 -116775.831 168732.2 -116728.212 168779.819 -116632.974 168779.819 -116442.498 168732.2 -116347.26 M 168113.152 -117680.593 168779.819 -117680.593 M 168113.152 -117252.022 168636.961 -117252.022 168732.2 -117299.641 168779.819 -117394.879 168779.819 -117537.736 168732.2 -117632.974 168684.58 -117680.593 M 168779.819 -118156.784 168113.152 -118156.784 M 168303.628 -118156.784 168208.39 -118204.403 168160.771 -118252.022 168113.152 -118347.26 168113.152 -118442.498 M 168113.152 -118775.832 168779.819 -118775.832 M 168208.39 -118775.832 168160.771 -118823.451 168113.152 -118918.689 168113.152 -119061.546 168160.771 -119156.784 168256.009 -119204.403 168779.819 -119204.403 M 168113.152 -120347.261 168779.819 -120585.356 M 168113.152 -120823.451 168779.819 -120585.356 169017.914 -120490.118 169065.533 -120442.499 169113.152 -120347.261 M 168779.819 -121347.261 168732.2 -121252.023 168684.58 -121204.404 168589.342 -121156.785 168303.628 -121156.785 168208.39 -121204.404 168160.771 -121252.023 168113.152 -121347.261 168113.152 -121490.118 168160.771 -121585.356 168208.39 -121632.975 168303.628 -121680.594 168589.342 -121680.594 168684.58 -121632.975 168732.2 -121585.356 168779.819 -121490.118 168779.819 -121347.261 M 168113.152 -122537.737 168779.819 -122537.737 M 168113.152 -122109.166 168636.961 -122109.166 168732.2 -122156.785 168779.819 -122252.023 168779.819 -122394.88 168732.2 -122490.118 168684.58 -122537.737 M 168779.819 -123013.928 168113.152 -123013.928 M 168303.628 -123013.928 168208.39 -123061.547 168160.771 -123109.166 168113.152 -123204.404 168113.152 -123299.642 M 168732.2 -123585.357 168779.819 -123680.595 168779.819 -123871.071 168732.2 -123966.309 168636.961 -124013.928 168589.342 -124013.928 168494.104 -123966.309 168446.485 -123871.071 168446.485 -123728.214 168398.866 -123632.976 168303.628 -123585.357 168256.009 -123585.357 168160.771 -123632.976 168113.152 -123728.214 168113.152 -123871.071 168160.771 -123966.309 M 168732.2 -124823.452 168779.819 -124728.214 168779.819 -124537.738 168732.2 -124442.5 168636.961 -124394.881 168256.009 -124394.881 168160.771 -124442.5 168113.152 -124537.738 168113.152 -124728.214 168160.771 -124823.452 168256.009 -124871.071 168351.247 -124871.071 168446.485 -124394.881 M 168779.819 -125442.5 168732.2 -125347.262 168636.961 -125299.643 167779.819 -125299.643 M 168113.152 -125680.596 168113.152 -126061.548 M 168779.819 -125823.453 167922.676 -125823.453 167827.438 -125871.072 167779.819 -125966.31 167779.819 -126061.548 M 168684.58 -126394.882 168732.2 -126442.501 168779.819 -126394.882 168732.2 -126347.263 168684.58 -126394.882 168779.819 -126394.882 M 168398.866 -126394.882 167827.438 -126347.263 167779.819 -126394.882 167827.438 -126442.501 168398.866 -126394.882 167779.819 -126394.882 M 169160.771 -126775.834 169113.152 -126823.453 168970.295 -126918.691 168875.057 -126966.31 168732.2 -127013.929 168494.104 -127061.548 168303.628 -127061.548 168065.533 -127013.929 167922.676 -126966.31 167827.438 -126918.691 167684.58 -126823.453 167636.961 -126775.834" fill="none" stroke-width="150"/><path d="M 92400 -104400 92400 -105000 91800 -105000 91200 -105000 91200 -104400 91200 -103800 91800 -103800 92400 -103800 92400 -104400"/><path d="M 95975 -84162.5 95975 -85950 94187.5 -85950 92400 -85950 92400 -84162.5 92400 -82375 94187.5 -82375 95975 -82375 95975 -84162.5"/><path d="M 95975 -93675 95975 -94275 95375 -94275 94775 -94275 94775 -93675 94775 -93075 95375 -93075 95975 -93075 95975 -93675"/><path d="M 100725 -81775 100725 -83550 100125 -83550 99525 -83550 99525 -81775 99525 -80000 100125 -80000 100725 -80000 100725 -81775"/><path d="M 101925 -104400 101925 -105000 101325 -105000 100725 -105000 100725 -104400 100725 -103800 101325 -103800 101925 -103800 101925 -104400"/><path d="M 112625 -84162.5 112625 -85950 110837.5 -85950 109050 -85950 109050 -84162.5 109050 -82375 110837.5 -82375 112625 -82375 112625 -84162.5"/><path d="M 112625 -100812.5 112625 -102600 110837.5 -102600 109050 -102600 109050 -100812.5 109050 -99025 110837.5 -99025 112625 -99025 112625 -100812.5"/><path d="M 115000 -105000 110837.5 -105000 106675 -105000 106675 -100825 106675 -97850 107875 -97850 107875 -100825 107875 -103800 110850 -103800 113825 -103800 113825 -100825 113825 -97850 110850 -97850 107875 -97850 106675 -97850 106675 -96650 110837.5 -96650 115000 -96650 115000 -100825 115000 -105000"/><path d="M 98350 -84162.5 98350 -88325 94175 -88325 90000 -88325 90000 -84162.5 90000 -81175 91200 -81175 91200 -84150 91200 -87125 94175 -87125 97150 -87125 97150 -84150 97150 -81175 94175 -81175 91200 -81175 90000 -81175 90000 -80000 94175 -80000 98350 -80000 98350 -84150 98350 -84162.5"/><path d="M 115000 -84162.5 115000 -88325 110837.5 -88325 106675 -88325 106675 -84162.5 106675 -81175 107875 -81175 107875 -84150 107875 -87125 110850 -87125 113825 -87125 113825 -84150 113825 -81175 110850 -81175 107875 -81175 106675 -81175 106675 -80000 110837.5 -80000 115000 -80000 115000 -84150 115000 -84162.5"/><path d="M 115000 -90100 115000 -90700 114412.5 -90700 113825 -90700 113825 -91887.5 113825 -93075 114412.5 -93075 115000 -93075 115000 -94275 115000 -95475 113225 -95475 111450 -95475 111450 -94875 111450 -94275 112037.5 -94275 112625 -94275 112625 -92487.5 112625 -90700 110837.5 -90700 109050 -90700 109050 -90100 109050 -89500 112025 -89500 115000 -89500 115000 -90100"/><path d="M 92400 -90100 92400 -90700 92987.5 -90700 93575 -90700 93575 -90100 93575 -89500 94175 -89500 94775 -89500 94775 -90100 94775 -90700 95375 -90700 95975 -90700 95975 -90100 95975 -89500 96562.5 -89500 97150 -89500 97150 -90100 97150 -90700 97750 -90700 98350 -90700 98350 -90100 98350 -89500 99537.5 -89500 100725 -89500 100725 -90100 100725 -90700 99537.5 -90700 98350 -90700 98350 -91300 98350 -91900 96562.5 -91900 94775 -91900 94775 -91300 94775 -90700 94175 -90700 93575 -90700 93575 -91300 93575 -91900 92987.5 -91900 92400 -91900 92400 -91300 92400 -90700 91800 -90700 91200 -90700 91200 -90100 91200 -89500 91800 -89500 92400 -89500 92400 -90100"/><path d="M 106087.5 -89500 107875 -89500 107875 -90100 107875 -90700 106687.5 -90700 105500 -90700 105500 -91300 105500 -91900 103712.5 -91900 101925 -91900 101925 -91300 101925 -90700 103112.5 -90700 104300 -90700 104300 -90100 104300 -89500 106087.5 -89500"/><path d="M 104900 -85950 105500 -85950 105500 -87137.5 105500 -88325 104900 -88325 104300 -88325 104300 -88912.5 104300 -89500 103700 -89500 103100 -89500 103100 -88912.5 103100 -88325 102512.5 -88325 101925 -88325 101925 -88912.5 101925 -89500 101325 -89500 100725 -89500 100725 -88912.5 100725 -88325 101325 -88325 101925 -88325 101925 -87725 101925 -87125 102512.5 -87125 103100 -87125 103100 -87725 103100 -88325 103700 -88325 104300 -88325 104300 -87137.5 104300 -85950 104900 -85950"/><path d="M 101925 -86537.5 101925 -87125 101325 -87125 100725 -87125 100725 -87725 100725 -88325 100125 -88325 99525 -88325 99525 -87137.5 99525 -85950 100725 -85950 101925 -85950 101925 -86537.5"/><path d="M 104300 -83550 105500 -83550 105500 -84150 105500 -84750 104900 -84750 104300 -84750 104300 -85350 104300 -85950 103700 -85950 103100 -85950 103100 -84750 103100 -83550 104300 -83550"/><path d="M 103100 -80587.5 103100 -81175 104300 -81175 105500 -81175 105500 -81775 105500 -82375 104300 -82375 103100 -82375 103100 -82962.5 103100 -83550 102512.5 -83550 101925 -83550 101925 -81775 101925 -80000 102512.5 -80000 103100 -80000 103100 -80587.5"/><path d="M 104300 -98437.5 104300 -99025 104900 -99025 105500 -99025 105500 -99625 105500 -102012.5 105500 -102612.5 105500 -105000 104300 -105000 103100 -105000 103100 -104400 103100 -103800 102512.5 -103800 101925 -103800 101925 -103200 101925 -102612.5 103100 -102612.5 103100 -103800 103700 -103800 104300 -103800 104300 -102612.5 104300 -101425 103700 -101425 103100 -101425 103100 -102012.5 103100 -102612.5 101925 -102612.5 101925 -102600 100725 -102600 99525 -102600 99525 -103200 99525 -103800 98937.5 -103800 98350 -103800 98350 -104400 98350 -105000 97750 -105000 97150 -105000 97150 -104400 97150 -103800 94775 -103800 92400 -103800 92400 -102012.5 92400 -101425 94775 -101425 94775 -102012.5 94775 -102600 95375 -102600 95975 -102600 97150 -102600 97150 -103200 97150 -103800 97750 -103800 98350 -103800 98350 -103200 98350 -102600 97750 -102600 97150 -102600 95975 -102600 95975 -102012.5 95975 -101425 95375 -101425 94775 -101425 92400 -101425 92400 -100225 91200 -100225 90000 -100225 90000 -99037.5 90000 -99025 92400 -99025 92400 -99625 92400 -100225 92987.5 -100225 93575 -100225 95975 -100225 96562.5 -100225 97150 -100225 97150 -100825 97150 -101425 99537.5 -101425 101925 -101425 101925 -100825 101925 -100225 102512.5 -100225 103100 -100225 103100 -99625 103100 -99025 101312.5 -99025 99525 -99025 99525 -99625 99525 -100225 98337.5 -100225 97150 -100225 97150 -99625 97150 -99025 96562.5 -99025 95975 -99025 95975 -99625 95975 -100225 93575 -100225 93575 -99625 93575 -99025 92987.5 -99025 92400 -99025 90000 -99025 90000 -97850 90600 -97850 91200 -97850 91200 -97250 91200 -96650 90600 -96650 90000 -96650 90000 -95462.5 90000 -94275 90600 -94275 91200 -94275 91200 -95462.5 91200 -96650 92987.5 -96650 94775 -96650 94775 -97250 94775 -97850 95962.5 -97850 97150 -97850 97150 -98437.5 97150 -99025 97750 -99025 98350 -99025 98350 -98437.5 98350 -97850 97750 -97850 97150 -97850 97150 -97250 97150 -96650 95962.5 -96650 94775 -96650 94775 -96062.5 99525 -96062.5 99525 -96650 100125 -96650 100725 -96650 100725 -96062.5 100725 -95475 100125 -95475 99525 -95475 99525 -96062.5 94775 -96062.5 94775 -95475 94175 -95475 93575 -95475 93575 -94875 93575 -94275 94175 -94275 94775 -94275 94775 -94875 94775 -95475 95375 -95475 95975 -95475 95975 -94875 95975 -94275 97162.5 -94275 98350 -94275 98350 -94875 98350 -95475 98937.5 -95475 99525 -95475 99525 -93687.5 99525 -91900 100725 -91900 101925 -91900 101925 -92487.5 101925 -93075 101325 -93075 100725 -93075 100725 -93675 100725 -94275 101912.5 -94275 103100 -94275 103100 -94875 103100 -95475 103700 -95475 104300 -95475 104300 -94875 104300 -94275 104900 -94275 105500 -94275 105500 -93675 105500 -93075 106087.5 -93075 106675 -93075 106675 -93675 106675 -94275 107275 -94275 107875 -94275 107875 -93675 107875 -93075 107275 -93075 106675 -93075 106675 -92487.5 106675 -91900 107275 -91900 107875 -91900 107875 -92487.5 107875 -93075 108462.5 -93075 109050 -93075 109050 -92487.5 109050 -91900 109650 -91900 110250 -91900 110250 -93087.5 110250 -94275 109650 -94275 109050 -94275 109050 -94875 109050 -95475 107275 -95475 105500 -95475 105500 -96662.5 105500 -97850 104900 -97850 104300 -97850 104300 -98437.5"/><path d="M 92987.5 -93075 93575 -93075 93575 -93675 93575 -94275 92987.5 -94275 92400 -94275 92400 -93675 92400 -93075 92987.5 -93075"/><path d="M 91800 -91900 92400 -91900 92400 -92487.5 92400 -93075 91800 -93075 91200 -93075 91200 -92487.5 91200 -91900 91800 -91900"/><path d="M 91200 -91300 91200 -91900 90600 -91900 90000 -91900 90000 -91300 90000 -90700 90600 -90700 91200 -90700 91200 -91300"/></g></g><g id="DVuG0hSAtCo7A9updXP8_bottom_copper"><use xlink:href="#NoOIfq-DBruJYPuNxoOQ_pad-10" x="124460" y="-121920"/><use xlink:href="#NoOIfq-DBruJYPuNxoOQ_pad-10" x="124460" y="-124460"/><use xlink:href="#NoOIfq-DBruJYPuNxoOQ_pad-10" x="124460" y="-127000"/><use xlink:href="#NoOIfq-DBruJYPuNxoOQ_pad-11" x="87630" y="-127000"/><use xlink:href="#NoOIfq-DBruJYPuNxoOQ_pad-12" x="160970" y="-92710"/><use xlink:href="#NoOIfq-DBruJYPuNxoOQ_pad-12" x="140970" y="-92710"/><use xlink:href="#NoOIfq-DBruJYPuNxoOQ_pad-13" x="119400" y="-109300"/><use xlink:href="#NoOIfq-DBruJYPuNxoOQ_pad-14" x="116860" y="-109300"/><use xlink:href="#NoOIfq-DBruJYPuNxoOQ_pad-14" x="114320" y="-109300"/><use xlink:href="#NoOIfq-DBruJYPuNxoOQ_pad-15" x="99060" y="-119380"/><use xlink:href="#NoOIfq-DBruJYPuNxoOQ_pad-16" x="99060" y="-127000"/><use xlink:href="#NoOIfq-DBruJYPuNxoOQ_pad-17" x="134620" y="-104140"/><use xlink:href="#NoOIfq-DBruJYPuNxoOQ_pad-18" x="134620" y="-101600"/><use xlink:href="#NoOIfq-DBruJYPuNxoOQ_pad-19" x="119380" y="-83820"/><use xlink:href="#NoOIfq-DBruJYPuNxoOQ_pad-16" x="129540" y="-83820"/><use xlink:href="#NoOIfq-DBruJYPuNxoOQ_pad-19" x="114300" y="-115570"/><use xlink:href="#NoOIfq-DBruJYPuNxoOQ_pad-16" x="114300" y="-123190"/><use xlink:href="#NoOIfq-DBruJYPuNxoOQ_pad-13" x="134620" y="-86360"/><use xlink:href="#NoOIfq-DBruJYPuNxoOQ_pad-14" x="134620" y="-83820"/><use xlink:href="#NoOIfq-DBruJYPuNxoOQ_pad-14" x="134620" y="-81280"/><use xlink:href="#NoOIfq-DBruJYPuNxoOQ_pad-19" x="106680" y="-116840"/><use xlink:href="#NoOIfq-DBruJYPuNxoOQ_pad-19" x="106680" y="-121840"/><use xlink:href="#NoOIfq-DBruJYPuNxoOQ_pad-19" x="134620" y="-123190"/><use xlink:href="#NoOIfq-DBruJYPuNxoOQ_pad-16" x="134620" y="-115570"/><use xlink:href="#NoOIfq-DBruJYPuNxoOQ_pad-15" x="106680" y="-109220"/><use xlink:href="#NoOIfq-DBruJYPuNxoOQ_pad-16" x="99060" y="-109220"/><use xlink:href="#NoOIfq-DBruJYPuNxoOQ_pad-11" x="87630" y="-114300"/><use xlink:href="#NoOIfq-DBruJYPuNxoOQ_pad-12" x="144780" y="-118110"/><use xlink:href="#NoOIfq-DBruJYPuNxoOQ_pad-12" x="164780" y="-118110"/><path d="M 114300 -127000 114300 -123190 M 134620 -123190 134620 -127000 M 144780 -118327.455 144997.455 -118110 M 134620 -127000 144780 -127000 M 124460 -127000 134620 -127000 M 144780 -127000 144780 -118327.455 M 124460 -127000 114300 -127000 M 106680 -127000 114300 -127000 M 106680 -127000 106680 -121840 M 99060 -127000 106680 -127000 M 87630 -127000 99060 -127000 M 106680 -109220 114300 -109220 M 106680 -116840 106680 -109220 M 114300 -115570 114300 -109220 M 87630 -114300 87630 -81280 M 99060 -109220 99060 -114300 87630 -114300 M 99060 -114300 99060 -119380 M 134620 -104140 134620 -115570 M 134620 -86360 134620 -101600 M 116840 -109220 116840 -124460 124460 -124460 M 119380 -83820 119380 -109220 M 129540 -83820 134620 -83820 M 124460 -81280 134620 -81280 140970 -81280 M 124460 -81280 124460 -121920 M 140970 -92710 140970 -81280 M 165000 -92720 164990 -92710 161070 -92710 M 165000 -118110 165000 -92720" fill="none" stroke-width="1000"/></g><g id="DVuG0hSAtCo7A9updXP8_bottom_soldermask"><use xlink:href="#b4xn2tROL9NPUwTfAHFX_pad-10" x="124460" y="-121920"/><use xlink:href="#b4xn2tROL9NPUwTfAHFX_pad-10" x="124460" y="-124460"/><use xlink:href="#b4xn2tROL9NPUwTfAHFX_pad-10" x="124460" y="-127000"/><use xlink:href="#b4xn2tROL9NPUwTfAHFX_pad-11" x="87630" y="-127000"/><use xlink:href="#b4xn2tROL9NPUwTfAHFX_pad-12" x="160970" y="-92710"/><use xlink:href="#b4xn2tROL9NPUwTfAHFX_pad-12" x="140970" y="-92710"/><use xlink:href="#b4xn2tROL9NPUwTfAHFX_pad-13" x="119400" y="-109300"/><use xlink:href="#b4xn2tROL9NPUwTfAHFX_pad-14" x="116860" y="-109300"/><use xlink:href="#b4xn2tROL9NPUwTfAHFX_pad-14" x="114320" y="-109300"/><use xlink:href="#b4xn2tROL9NPUwTfAHFX_pad-15" x="99060" y="-119380"/><use xlink:href="#b4xn2tROL9NPUwTfAHFX_pad-16" x="99060" y="-127000"/><use xlink:href="#b4xn2tROL9NPUwTfAHFX_pad-17" x="134620" y="-104140"/><use xlink:href="#b4xn2tROL9NPUwTfAHFX_pad-18" x="134620" y="-101600"/><use xlink:href="#b4xn2tROL9NPUwTfAHFX_pad-19" x="119380" y="-83820"/><use xlink:href="#b4xn2tROL9NPUwTfAHFX_pad-16" x="129540" y="-83820"/><use xlink:href="#b4xn2tROL9NPUwTfAHFX_pad-19" x="114300" y="-115570"/><use xlink:href="#b4xn2tROL9NPUwTfAHFX_pad-16" x="114300" y="-123190"/><use xlink:href="#b4xn2tROL9NPUwTfAHFX_pad-13" x="134620" y="-86360"/><use xlink:href="#b4xn2tROL9NPUwTfAHFX_pad-14" x="134620" y="-83820"/><use xlink:href="#b4xn2tROL9NPUwTfAHFX_pad-14" x="134620" y="-81280"/><use xlink:href="#b4xn2tROL9NPUwTfAHFX_pad-19" x="106680" y="-116840"/><use xlink:href="#b4xn2tROL9NPUwTfAHFX_pad-19" x="106680" y="-121840"/><use xlink:href="#b4xn2tROL9NPUwTfAHFX_pad-19" x="134620" y="-123190"/><use xlink:href="#b4xn2tROL9NPUwTfAHFX_pad-16" x="134620" y="-115570"/><use xlink:href="#b4xn2tROL9NPUwTfAHFX_pad-15" x="106680" y="-109220"/><use xlink:href="#b4xn2tROL9NPUwTfAHFX_pad-16" x="99060" y="-109220"/><use xlink:href="#b4xn2tROL9NPUwTfAHFX_pad-11" x="87630" y="-114300"/><use xlink:href="#b4xn2tROL9NPUwTfAHFX_pad-12" x="144780" y="-118110"/><use xlink:href="#b4xn2tROL9NPUwTfAHFX_pad-12" x="164780" y="-118110"/></g><g id="DVuG0hSAtCo7A9updXP8_bottom_drill1"><use xlink:href="#C2Nkd_aoA-cUEIzzrVXc_pad-1" x="99060" y="-109220"/><use xlink:href="#C2Nkd_aoA-cUEIzzrVXc_pad-1" x="99060" y="-119380"/><use xlink:href="#C2Nkd_aoA-cUEIzzrVXc_pad-1" x="99060" y="-127000"/><use xlink:href="#C2Nkd_aoA-cUEIzzrVXc_pad-1" x="106680" y="-109220"/><use xlink:href="#C2Nkd_aoA-cUEIzzrVXc_pad-1" x="106680" y="-116840"/><use xlink:href="#C2Nkd_aoA-cUEIzzrVXc_pad-1" x="106680" y="-121840"/><use xlink:href="#C2Nkd_aoA-cUEIzzrVXc_pad-1" x="114300" y="-115570"/><use xlink:href="#C2Nkd_aoA-cUEIzzrVXc_pad-1" x="114300" y="-123190"/><use xlink:href="#C2Nkd_aoA-cUEIzzrVXc_pad-1" x="114320" y="-109300"/><use xlink:href="#C2Nkd_aoA-cUEIzzrVXc_pad-1" x="116860" y="-109300"/><use xlink:href="#C2Nkd_aoA-cUEIzzrVXc_pad-1" x="119380" y="-83820"/><use xlink:href="#C2Nkd_aoA-cUEIzzrVXc_pad-1" x="119400" y="-109300"/><use xlink:href="#C2Nkd_aoA-cUEIzzrVXc_pad-1" x="124460" y="-121920"/><use xlink:href="#C2Nkd_aoA-cUEIzzrVXc_pad-1" x="124460" y="-124460"/><use xlink:href="#C2Nkd_aoA-cUEIzzrVXc_pad-1" x="124460" y="-127000"/><use xlink:href="#C2Nkd_aoA-cUEIzzrVXc_pad-1" x="129540" y="-83820"/><use xlink:href="#C2Nkd_aoA-cUEIzzrVXc_pad-1" x="134620" y="-81280"/><use xlink:href="#C2Nkd_aoA-cUEIzzrVXc_pad-1" x="134620" y="-83820"/><use xlink:href="#C2Nkd_aoA-cUEIzzrVXc_pad-1" x="134620" y="-86360"/><use xlink:href="#C2Nkd_aoA-cUEIzzrVXc_pad-1" x="134620" y="-115570"/><use xlink:href="#C2Nkd_aoA-cUEIzzrVXc_pad-1" x="134620" y="-123190"/><use xlink:href="#C2Nkd_aoA-cUEIzzrVXc_pad-2" x="134620" y="-101600"/><use xlink:href="#C2Nkd_aoA-cUEIzzrVXc_pad-2" x="134620" y="-104140"/><use xlink:href="#C2Nkd_aoA-cUEIzzrVXc_pad-3" x="87630" y="-114300"/><use xlink:href="#C2Nkd_aoA-cUEIzzrVXc_pad-3" x="87630" y="-127000"/><use xlink:href="#C2Nkd_aoA-cUEIzzrVXc_pad-4" x="140970" y="-92710"/><use xlink:href="#C2Nkd_aoA-cUEIzzrVXc_pad-4" x="144780" y="-118110"/><use xlink:href="#C2Nkd_aoA-cUEIzzrVXc_pad-4" x="160970" y="-92710"/><use xlink:href="#C2Nkd_aoA-cUEIzzrVXc_pad-4" x="164780" y="-118110"/></g><g id="DVuG0hSAtCo7A9updXP8_bottom_drill2"><path d="M 170500 -80500 170500 -130500 A 2000 2000 0 0 0 168500 -132500 L 85500 -132500 M 83500 -80500 A 2000 2000 0 0 0 85500 -78500 M 85500 -132500 A 2000 2000 0 0 0 83500 -130500 M 168500 -78500 A 2000 2000 0 0 0 170500 -80500 M 85500 -78500 168500 -78500 M 83500 -130500 83500 -80500" fill="none" stroke-width="50"/><path d="M 86082.77 -135639.84 86082.77 -133639.84 86558.96 -133639.84 86844.67 -133735.08 87035.15 -133925.55 87130.39 -134116.03 87225.63 -134496.98 87225.63 -134782.69 87130.39 -135163.65 87035.15 -135354.12 86844.67 -135544.6 86558.96 -135639.84 86082.77 -135639.84 M 88082.77 -135639.84 88082.77 -134306.5 M 88082.77 -134687.46 88178.01 -134496.98 88273.24 -134401.74 88463.72 -134306.5 88654.2 -134306.5 M 89320.86 -135639.84 89320.86 -134306.5 M 89320.86 -133639.84 89225.63 -133735.08 89320.86 -133830.31 89416.1 -133735.08 89320.86 -133639.84 89320.86 -133830.31 M 90558.96 -135639.84 90368.48 -135544.6 90273.24 -135354.12 90273.24 -133639.84 M 91606.58 -135639.84 91416.1 -135544.6 91320.86 -135354.12 91320.86 -133639.84 M 93892.29 -135639.84 93892.29 -133639.84 94558.96 -135068.41 95225.63 -133639.84 95225.63 -135639.84 M 97035.15 -135639.84 97035.15 -134592.22 96939.91 -134401.74 96749.44 -134306.5 96368.48 -134306.5 96178.01 -134401.74 M 97035.15 -135544.6 96844.67 -135639.84 96368.48 -135639.84 96178.01 -135544.6 96082.77 -135354.12 96082.77 -135163.65 96178.01 -134973.17 96368.48 -134877.93 96844.67 -134877.93 97035.15 -134782.69 M 97987.53 -134306.5 97987.53 -136306.5 M 97987.53 -134401.74 98178.01 -134306.5 98558.96 -134306.5 98749.44 -134401.74 98844.67 -134496.98 98939.91 -134687.46 98939.91 -135258.88 98844.67 -135449.36 98749.44 -135544.6 98558.96 -135639.84 98178.01 -135639.84 97987.53 -135544.6 M 99797.05 -135449.36 99892.29 -135544.6 99797.05 -135639.84 99701.82 -135544.6 99797.05 -135449.36 99797.05 -135639.84 M 99797.05 -134401.74 99892.29 -134496.98 99797.05 -134592.22 99701.82 -134496.98 99797.05 -134401.74 99797.05 -134592.22" fill="none" stroke-width="200"/></g><clipPath id="DVuG0hSAtCo7A9updXP8_bottom_outline"><path d="M 170500 -80500 170500 -130500 A 2000 2000 0 0 0 168500 -132500 L 85500 -132500 A 2000 2000 0 0 0 83500 -130500 L 83500 -80500 A 2000 2000 0 0 0 85500 -78500 L 168500 -78500 A 2000 2000 0 0 0 170500 -80500" fill="none" stroke-width="50"/></clipPath><mask id="DVuG0hSAtCo7A9updXP8_bottom_mech-mask"><g fill="#000" stroke="#000"><rect x="83500" y="-132500" width="87000" height="54000" fill="#fff"/><use xlink:href="#DVuG0hSAtCo7A9updXP8_bottom_drill1"/><use xlink:href="#DVuG0hSAtCo7A9updXP8_bottom_drill2"/></g></mask><mask id="DVuG0hSAtCo7A9updXP8_bottom_cf-mask"><g fill="#fff" stroke="#fff"><use xlink:href="#DVuG0hSAtCo7A9updXP8_bottom_soldermask"/></g></mask><mask id="DVuG0hSAtCo7A9updXP8_bottom_sm-mask"><g fill="#000" stroke="#000"><rect x="83500" y="-132500" width="87000" height="54000" fill="#fff"/><use xlink:href="#DVuG0hSAtCo7A9updXP8_bottom_soldermask"/></g></mask></defs><g transform="translate(0,-211000) scale(1,-1)"><g mask="url(#DVuG0hSAtCo7A9updXP8_bottom_mech-mask)" clip-path="url(#DVuG0hSAtCo7A9updXP8_bottom_outline)" transform="translate(254000,0) scale(-1,1)"><rect x="83500" y="-132500" width="87000" height="54000" fill="currentColor" class="DVuG0hSAtCo7A9updXP8_fr4"/><use xlink:href="#DVuG0hSAtCo7A9updXP8_bottom_copper" fill="currentColor" stroke="currentColor" class="DVuG0hSAtCo7A9updXP8_cu"/><use xlink:href="#DVuG0hSAtCo7A9updXP8_bottom_copper" fill="currentColor" stroke="currentColor" class="DVuG0hSAtCo7A9updXP8_cf" mask="url(#DVuG0hSAtCo7A9updXP8_bottom_cf-mask)"/><g mask="url(#DVuG0hSAtCo7A9updXP8_bottom_sm-mask)"><rect x="83500" y="-132500" width="87000" height="54000" fill="currentColor" class="DVuG0hSAtCo7A9updXP8_sm"/><use xlink:href="#DVuG0hSAtCo7A9updXP8_bottom_silkscreen" fill="currentColor" stroke="currentColor" class="DVuG0hSAtCo7A9updXP8_ss"/></g></g></g></svg>