<svg version="1.1" xmlns="http://www.w3.org/2000/svg" xmlns:xlink="http://www.w3.org/1999/xlink" stroke-linecap="round" stroke-linejoin="round" stroke-width="0" fill-rule="evenodd" clip-rule="evenodd" id="DVuG0hSAtCo7A9updXP8_top" viewBox="83500 -132500 87000 54000" width="87mm" height="54mm" class="w-100 h-100"><defs><style>.DVuG0hSAtCo7A9updXP8_fr4 {color: #666666;}
.DVuG0hSAtCo7A9updXP8_cu {color: #cccccc;}
.DVuG0hSAtCo7A9updXP8_cf {color: #c0c0c0;}
.DVuG0hSAtCo7A9updXP8_sm {color: #063589; opacity: 0.75;}
.DVuG0hSAtCo7A9updXP8_ss {color: #ffffff;}
.DVuG0hSAtCo7A9updXP8_sp {color: #999999;}
.DVuG0hSAtCo7A9updXP8_out {color: #000000;}</style><circle cx="0" cy="0" r="720" id="VhAE444sLAQwE9L4Wj8B_pad-14"/><circle cx="0" cy="0" r="1300" id="VhAE444sLAQwE9L4Wj8B_pad-15"/><circle cx="0" cy="0" r="1242" id="VhAE444sLAQwE9L4Wj8B_pad-16"/><rect x="-750" y="-750" width="1500" height="1500" id="VhAE444sLAQwE9L4Wj8B_pad-17"/><circle cx="0" cy="0" r="750" id="VhAE444sLAQwE9L4Wj8B_pad-18"/><rect x="-800" y="-800" width="1600" height="1600" id="VhAE444sLAQwE9L4Wj8B_pad-19"/><rect x="-800" y="-800" width="1600" height="1600" rx="800" ry="800" id="VhAE444sLAQwE9L4Wj8B_pad-20"/><rect x="-900" y="-900" width="1800" height="1800" id="VhAE444sLAQwE9L4Wj8B_pad-21"/><circle cx="0" cy="0" r="900" id="VhAE444sLAQwE9L4Wj8B_pad-22"/><circle cx="0" cy="0" r="800" id="VhAE444sLAQwE9L4Wj8B_pad-23"/><mask id="VhAE444sLAQwE9L4Wj8B_clear-1" fill="#000" stroke="#000"><g><rect x="85969.219" y="-130944.819" width="83266.552" height="49803.4661516" fill="#fff"/><use xlink:href="#VhAE444sLAQwE9L4Wj8B_pad-14" x="124460" y="-121920"/><use xlink:href="#VhAE444sLAQwE9L4Wj8B_pad-14" x="124460" y="-124460"/><use xlink:href="#VhAE444sLAQwE9L4Wj8B_pad-14" x="124460" y="-127000"/><use xlink:href="#VhAE444sLAQwE9L4Wj8B_pad-15" x="87630" y="-127000"/><use xlink:href="#VhAE444sLAQwE9L4Wj8B_pad-16" x="160970" y="-92710"/><use xlink:href="#VhAE444sLAQwE9L4Wj8B_pad-16" x="140970" y="-92710"/><use xlink:href="#VhAE444sLAQwE9L4Wj8B_pad-17" x="119400" y="-109300"/><use xlink:href="#VhAE444sLAQwE9L4Wj8B_pad-18" x="116860" y="-109300"/><use xlink:href="#VhAE444sLAQwE9L4Wj8B_pad-18" x="114320" y="-109300"/><use xlink:href="#VhAE444sLAQwE9L4Wj8B_pad-19" x="99060" y="-119380"/><use xlink:href="#VhAE444sLAQwE9L4Wj8B_pad-20" x="99060" y="-127000"/><use xlink:href="#VhAE444sLAQwE9L4Wj8B_pad-21" x="134620" y="-104140"/><use xlink:href="#VhAE444sLAQwE9L4Wj8B_pad-22" x="134620" y="-101600"/><use xlink:href="#VhAE444sLAQwE9L4Wj8B_pad-23" x="119380" y="-83820"/><use xlink:href="#VhAE444sLAQwE9L4Wj8B_pad-20" x="129540" y="-83820"/><use xlink:href="#VhAE444sLAQwE9L4Wj8B_pad-23" x="114300" y="-115570"/><use xlink:href="#VhAE444sLAQwE9L4Wj8B_pad-20" x="114300" y="-123190"/><use xlink:href="#VhAE444sLAQwE9L4Wj8B_pad-17" x="134620" y="-86360"/><use xlink:href="#VhAE444sLAQwE9L4Wj8B_pad-18" x="134620" y="-83820"/><use xlink:href="#VhAE444sLAQwE9L4Wj8B_pad-18" x="134620" y="-81280"/><use xlink:href="#VhAE444sLAQwE9L4Wj8B_pad-23" x="106680" y="-116840"/><use xlink:href="#VhAE444sLAQwE9L4Wj8B_pad-23" x="106680" y="-121840"/><use xlink:href="#VhAE444sLAQwE9L4Wj8B_pad-23" x="134620" y="-123190"/><use xlink:href="#VhAE444sLAQwE9L4Wj8B_pad-20" x="134620" y="-115570"/><use xlink:href="#VhAE444sLAQwE9L4Wj8B_pad-19" x="106680" y="-109220"/><use xlink:href="#VhAE444sLAQwE9L4Wj8B_pad-20" x="99060" y="-109220"/><use xlink:href="#VhAE444sLAQwE9L4Wj8B_pad-15" x="87630" y="-114300"/><use xlink:href="#VhAE444sLAQwE9L4Wj8B_pad-16" x="144780" y="-118110"/><use xlink:href="#VhAE444sLAQwE9L4Wj8B_pad-16" x="164780" y="-118110"/></g></mask><circle cx="0" cy="0" r="720" id="iPKNZDu8e6thTcgwnbmE_pad-10"/><circle cx="0" cy="0" r="1300" id="iPKNZDu8e6thTcgwnbmE_pad-11"/><circle cx="0" cy="0" r="1140" id="iPKNZDu8e6thTcgwnbmE_pad-12"/><rect x="-750" y="-750" width="1500" height="1500" id="iPKNZDu8e6thTcgwnbmE_pad-13"/><circle cx="0" cy="0" r="750" id="iPKNZDu8e6thTcgwnbmE_pad-14"/><rect x="-800" y="-800" width="1600" height="1600" id="iPKNZDu8e6thTcgwnbmE_pad-15"/><rect x="-800" y="-800" width="1600" height="1600" rx="800" ry="800" id="iPKNZDu8e6thTcgwnbmE_pad-16"/><rect x="-900" y="-900" width="1800" height="1800" id="iPKNZDu8e6thTcgwnbmE_pad-17"/><circle cx="0" cy="0" r="900" id="iPKNZDu8e6thTcgwnbmE_pad-18"/><circle cx="0" cy="0" r="800" id="iPKNZDu8e6thTcgwnbmE_pad-19"/><circle cx="0" cy="0" r="720" id="odKTohUqpMIksDrCd4JZ_pad-10"/><circle cx="0" cy="0" r="1300" id="odKTohUqpMIksDrCd4JZ_pad-11"/><circle cx="0" cy="0" r="1242" id="odKTohUqpMIksDrCd4JZ_pad-12"/><rect x="-750" y="-750" width="1500" height="1500" id="odKTohUqpMIksDrCd4JZ_pad-13"/><circle cx="0" cy="0" r="750" id="odKTohUqpMIksDrCd4JZ_pad-14"/><rect x="-800" y="-800" width="1600" height="1600" id="odKTohUqpMIksDrCd4JZ_pad-15"/><rect x="-800" y="-800" width="1600" height="1600" rx="800" ry="800" id="odKTohUqpMIksDrCd4JZ_pad-16"/><rect x="-900" y="-900" width="1800" height="1800" id="odKTohUqpMIksDrCd4JZ_pad-17"/><circle cx="0" cy="0" r="900" id="odKTohUqpMIksDrCd4JZ_pad-18"/><circle cx="0" cy="0" r="800" id="odKTohUqpMIksDrCd4JZ_pad-19"/><circle cx="0" cy="0" r="400" id="C2Nkd_aoA-cUEIzzrVXc_pad-1"/><circle cx="0" cy="0" r="450" id="C2Nkd_aoA-cUEIzzrVXc_pad-2"/><circle cx="0" cy="0" r="750" id="C2Nkd_aoA-cUEIzzrVXc_pad-3"/><circle cx="0" cy="0" r="760" id="C2Nkd_aoA-cUEIzzrVXc_pad-4"/><g id="DVuG0hSAtCo7A9updXP8_top_silkscreen"><g mask="url(#VhAE444sLAQwE9L4Wj8B_clear-1)"><path d="M 106680 -109220 114300 -109220 M 99060 -119380 99060 -114300 M 134620 -104140 134620 -115570 M 87630 -114300 87630 -81280 M 114300 -115570 114300 -109220 M 114300 -127000 124460 -127000 M 144780 -127000 144780 -118110 M 161290 -92710 165100 -92710 M 129540 -83820 134620 -83820 M 140000 -92710 140000 -81280 M 106680 -109220 106680 -116840 M 134620 -127000 144780 -127000 M 114300 -127000 114300 -123190 M 124460 -81280 134620 -81280 M 134620 -98500 134620 -86360 M 114300 -127000 99060 -127000 87630 -127000 M 134620 -81280 140000 -81280 M 165100 -92710 165100 -118110 M 99060 -109220 100100 -109220 M 124460 -121920 124460 -81280 M 106680 -127000 106680 -121920 M 99060 -114300 87630 -114300 M 116840 -124460 124460 -124460 M 119380 -83820 119380 -109220 M 134620 -123190 134620 -127000 M 124460 -127000 134620 -127000 M 116840 -109220 116840 -124460 M 99060 -114300 99060 -109220" fill="none" stroke-width="120"/><path d="M 169160.771 -122567.506 169113.152 -122615.125 168970.295 -122710.363 168875.057 -122757.982 168732.2 -122805.601 168494.104 -122853.22 168303.628 -122853.22 168065.533 -122805.601 167922.676 -122757.982 167827.438 -122710.363 167684.58 -122615.125 167636.961 -122567.506 M 167779.819 -122329.41 167779.819 -121757.982 M 168779.819 -122043.696 167779.819 -122043.696 M 168779.819 -121424.648 167779.819 -121424.648 M 168779.819 -120996.077 168256.009 -120996.077 168160.771 -121043.696 168113.152 -121138.934 168113.152 -121281.791 168160.771 -121377.029 168208.39 -121424.648 M 168779.819 -120519.886 168113.152 -120519.886 M 167779.819 -120519.886 167827.438 -120567.505 167875.057 -120519.886 167827.438 -120472.267 167779.819 -120519.886 167875.057 -120519.886 M 168732.2 -120091.315 168779.819 -119996.077 168779.819 -119805.601 168732.2 -119710.363 168636.961 -119662.744 168589.342 -119662.744 168494.104 -119710.363 168446.485 -119805.601 168446.485 -119948.458 168398.866 -120043.696 168303.628 -120091.315 168256.009 -120091.315 168160.771 -120043.696 168113.152 -119948.458 168113.152 -119805.601 168160.771 -119710.363 M 168779.819 -118472.267 168113.152 -118472.267 M 167779.819 -118472.267 167827.438 -118519.886 167875.057 -118472.267 167827.438 -118424.648 167779.819 -118472.267 167875.057 -118472.267 M 168732.2 -118043.696 168779.819 -117948.458 168779.819 -117757.982 168732.2 -117662.744 168636.961 -117615.125 168589.342 -117615.125 168494.104 -117662.744 168446.485 -117757.982 168446.485 -117900.839 168398.866 -117996.077 168303.628 -118043.696 168256.009 -118043.696 168160.771 -117996.077 168113.152 -117900.839 168113.152 -117757.982 168160.771 -117662.744 M 168113.152 -116567.505 168113.152 -116186.553 M 167779.819 -116424.648 168636.961 -116424.648 168732.2 -116377.029 168779.819 -116281.791 168779.819 -116186.553 M 168779.819 -115853.219 167779.819 -115853.219 M 168779.819 -115424.648 168256.009 -115424.648 168160.771 -115472.267 168113.152 -115567.505 168113.152 -115710.362 168160.771 -115805.6 168208.39 -115853.219 M 168732.2 -114567.505 168779.819 -114662.743 168779.819 -114853.219 168732.2 -114948.457 168636.961 -114996.076 168256.009 -114996.076 168160.771 -114948.457 168113.152 -114853.219 168113.152 -114662.743 168160.771 -114567.505 168256.009 -114519.886 168351.247 -114519.886 168446.485 -114996.076 M 168732.2 -113377.028 168779.819 -113281.79 168779.819 -113091.314 168732.2 -112996.076 168636.961 -112948.457 168589.342 -112948.457 168494.104 -112996.076 168446.485 -113091.314 168446.485 -113234.171 168398.866 -113329.409 168303.628 -113377.028 168256.009 -113377.028 168160.771 -113329.409 168113.152 -113234.171 168113.152 -113091.314 168160.771 -112996.076 M 168779.819 -112519.885 168113.152 -112519.885 M 167779.819 -112519.885 167827.438 -112567.504 167875.057 -112519.885 167827.438 -112472.266 167779.819 -112519.885 167875.057 -112519.885 M 168779.819 -111615.124 167779.819 -111615.124 M 168732.2 -111615.124 168779.819 -111710.362 168779.819 -111900.838 168732.2 -111996.076 168684.58 -112043.695 168589.342 -112091.314 168303.628 -112091.314 168208.39 -112043.695 168160.771 -111996.076 168113.152 -111900.838 168113.152 -111710.362 168160.771 -111615.124 M 168732.2 -110757.981 168779.819 -110853.219 168779.819 -111043.695 168732.2 -111138.933 168636.961 -111186.552 168256.009 -111186.552 168160.771 -111138.933 168113.152 -111043.695 168113.152 -110853.219 168160.771 -110757.981 168256.009 -110710.362 168351.247 -110710.362 168446.485 -111186.552 M 168113.152 -109615.123 168779.819 -109424.647 168303.628 -109234.171 168779.819 -109043.695 168113.152 -108853.219 M 168779.819 -108472.266 167779.819 -108472.266 M 168779.819 -108043.695 168256.009 -108043.695 168160.771 -108091.314 168113.152 -108186.552 168113.152 -108329.409 168160.771 -108424.647 168208.39 -108472.266 M 168732.2 -107186.552 168779.819 -107281.79 168779.819 -107472.266 168732.2 -107567.504 168636.961 -107615.123 168256.009 -107615.123 168160.771 -107567.504 168113.152 -107472.266 168113.152 -107281.79 168160.771 -107186.552 168256.009 -107138.933 168351.247 -107138.933 168446.485 -107615.123 M 168779.819 -106710.361 168113.152 -106710.361 M 168303.628 -106710.361 168208.39 -106662.742 168160.771 -106615.123 168113.152 -106519.885 168113.152 -106424.647 M 168732.2 -105710.361 168779.819 -105805.599 168779.819 -105996.075 168732.2 -106091.313 168636.961 -106138.932 168256.009 -106138.932 168160.771 -106091.313 168113.152 -105996.075 168113.152 -105805.599 168160.771 -105710.361 168256.009 -105662.742 168351.247 -105662.742 168446.485 -106138.932 M 168113.152 -104567.503 168779.819 -104329.408 M 168113.152 -104091.313 168779.819 -104329.408 169017.914 -104424.646 169065.533 -104472.265 169113.152 -104567.503 M 168779.819 -103567.503 168732.2 -103662.741 168684.58 -103710.36 168589.342 -103757.979 168303.628 -103757.979 168208.39 -103710.36 168160.771 -103662.741 168113.152 -103567.503 168113.152 -103424.646 168160.771 -103329.408 168208.39 -103281.789 168303.628 -103234.17 168589.342 -103234.17 168684.58 -103281.789 168732.2 -103329.408 168779.819 -103424.646 168779.819 -103567.503 M 168113.152 -102377.027 168779.819 -102377.027 M 168113.152 -102805.598 168636.961 -102805.598 168732.2 -102757.979 168779.819 -102662.741 168779.819 -102519.884 168732.2 -102424.646 168684.58 -102377.027 M 168113.152 -101138.931 169113.152 -101138.931 M 168160.771 -101138.931 168113.152 -101043.693 168113.152 -100853.217 168160.771 -100757.979 168208.39 -100710.36 168303.628 -100662.741 168589.342 -100662.741 168684.58 -100710.36 168732.2 -100757.979 168779.819 -100853.217 168779.819 -101043.693 168732.2 -101138.931 M 168113.152 -99805.598 168779.819 -99805.598 M 168113.152 -100234.169 168636.961 -100234.169 168732.2 -100186.55 168779.819 -100091.312 168779.819 -99948.455 168732.2 -99853.217 168684.58 -99805.598 M 168732.2 -99377.026 168779.819 -99281.788 168779.819 -99091.312 168732.2 -98996.074 168636.961 -98948.455 168589.342 -98948.455 168494.104 -98996.074 168446.485 -99091.312 168446.485 -99234.169 168398.866 -99329.407 168303.628 -99377.026 168256.009 -99377.026 168160.771 -99329.407 168113.152 -99234.169 168113.152 -99091.312 168160.771 -98996.074 M 168779.819 -98519.883 167779.819 -98519.883 M 168779.819 -98091.312 168256.009 -98091.312 168160.771 -98138.931 168113.152 -98234.169 168113.152 -98377.026 168160.771 -98472.264 168208.39 -98519.883 M 168779.819 -96853.216 168113.152 -96853.216 M 167779.819 -96853.216 167827.438 -96900.835 167875.057 -96853.216 167827.438 -96805.597 167779.819 -96853.216 167875.057 -96853.216 M 168113.152 -96377.026 168779.819 -96377.026 M 168208.39 -96377.026 168160.771 -96329.407 168113.152 -96234.169 168113.152 -96091.312 168160.771 -95996.074 168256.009 -95948.455 168779.819 -95948.455 M 168113.152 -94853.216 168113.152 -94472.264 M 167779.819 -94710.359 168636.961 -94710.359 168732.2 -94662.74 168779.819 -94567.502 168779.819 -94472.264 M 168779.819 -94138.93 167779.819 -94138.93 M 168779.819 -93710.359 168256.009 -93710.359 168160.771 -93757.978 168113.152 -93853.216 168113.152 -93996.073 168160.771 -94091.311 168208.39 -94138.93 M 168732.2 -92853.216 168779.819 -92948.454 168779.819 -93138.93 168732.2 -93234.168 168636.961 -93281.787 168256.009 -93281.787 168160.771 -93234.168 168113.152 -93138.93 168113.152 -92948.454 168160.771 -92853.216 168256.009 -92805.597 168351.247 -92805.597 168446.485 -93281.787 M 168113.152 -91615.12 169113.152 -91615.12 M 168160.771 -91615.12 168113.152 -91519.882 168113.152 -91329.406 168160.771 -91234.168 168208.39 -91186.549 168303.628 -91138.93 168589.342 -91138.93 168684.58 -91186.549 168732.2 -91234.168 168779.819 -91329.406 168779.819 -91519.882 168732.2 -91615.12 M 168779.819 -90281.787 168256.009 -90281.787 168160.771 -90329.406 168113.152 -90424.644 168113.152 -90615.12 168160.771 -90710.358 M 168732.2 -90281.787 168779.819 -90377.025 168779.819 -90615.12 168732.2 -90710.358 168636.961 -90757.977 168541.723 -90757.977 168446.485 -90710.358 168398.866 -90615.12 168398.866 -90377.025 168351.247 -90281.787 M 168779.819 -89805.596 168113.152 -89805.596 M 168303.628 -89805.596 168208.39 -89757.977 168160.771 -89710.358 168113.152 -89615.12 168113.152 -89519.882 M 168113.152 -89329.405 168113.152 -88948.453 M 167779.819 -89186.548 168636.961 -89186.548 168732.2 -89138.929 168779.819 -89043.691 168779.819 -88948.453 M 168732.2 -88662.738 168779.819 -88567.5 168779.819 -88377.024 168732.2 -88281.786 168636.961 -88234.167 168589.342 -88234.167 168494.104 -88281.786 168446.485 -88377.024 168446.485 -88519.881 168398.866 -88615.119 168303.628 -88662.738 168256.009 -88662.738 168160.771 -88615.119 168113.152 -88519.881 168113.152 -88377.024 168160.771 -88281.786 M 169160.771 -87900.833 169113.152 -87853.214 168970.295 -87757.976 168875.057 -87710.357 168732.2 -87662.738 168494.104 -87615.119 168303.628 -87615.119 168065.533 -87662.738 167922.676 -87710.357 167827.438 -87757.976 167684.58 -87853.214 167636.961 -87900.833" fill="none" stroke-width="150"/><path d="M 90814.109 -83459.2 91099.823 -83554.438 91576.014 -83554.438 91766.49 -83459.2 91861.728 -83363.961 91956.966 -83173.485 91956.966 -82983.009 91861.728 -82792.533 91766.49 -82697.295 91576.014 -82602.057 91195.061 -82506.819 91004.585 -82411.58 90909.347 -82316.342 90814.109 -82125.866 90814.109 -81935.39 90909.347 -81744.914 91004.585 -81649.676 91195.061 -81554.438 91671.252 -81554.438 91956.966 -81649.676 M 92814.109 -83554.438 92814.109 -82221.104 M 92814.109 -81554.438 92718.871 -81649.676 92814.109 -81744.914 92909.347 -81649.676 92814.109 -81554.438 92814.109 -81744.914 M 94623.633 -82221.104 94623.633 -83840.152 94528.395 -84030.628 94433.157 -84125.866 94242.68 -84221.104 93956.966 -84221.104 93766.49 -84125.866 M 94623.633 -83459.2 94433.157 -83554.438 94052.204 -83554.438 93861.728 -83459.2 93766.49 -83363.961 93671.252 -83173.485 93671.252 -82602.057 93766.49 -82411.58 93861.728 -82316.342 94052.204 -82221.104 94433.157 -82221.104 94623.633 -82316.342 M 95576.014 -82221.104 95576.014 -83554.438 M 95576.014 -82411.58 95671.252 -82316.342 95861.728 -82221.104 96147.443 -82221.104 96337.919 -82316.342 96433.157 -82506.819 96433.157 -83554.438 M 98242.681 -83554.438 98242.681 -82506.819 98147.443 -82316.342 97956.967 -82221.104 97576.014 -82221.104 97385.538 -82316.342 M 98242.681 -83459.2 98052.205 -83554.438 97576.014 -83554.438 97385.538 -83459.2 97290.3 -83268.723 97290.3 -83078.247 97385.538 -82887.771 97576.014 -82792.533 98052.205 -82792.533 98242.681 -82697.295 M 99480.776 -83554.438 99290.3 -83459.2 99195.062 -83268.723 99195.062 -81554.438 M 101671.253 -83459.2 101956.967 -83554.438 102433.158 -83554.438 102623.634 -83459.2 102718.872 -83363.961 102814.11 -83173.485 102814.11 -82983.009 102718.872 -82792.533 102623.634 -82697.295 102433.158 -82602.057 102052.205 -82506.819 101861.729 -82411.58 101766.491 -82316.342 101671.253 -82125.866 101671.253 -81935.39 101766.491 -81744.914 101861.729 -81649.676 102052.205 -81554.438 102528.396 -81554.438 102814.11 -81649.676 M 103671.253 -82221.104 103671.253 -83554.438 M 103671.253 -82411.58 103766.491 -82316.342 103956.967 -82221.104 104242.682 -82221.104 104433.158 -82316.342 104528.396 -82506.819 104528.396 -83554.438 M 105480.777 -83554.438 105480.777 -82221.104 M 105480.777 -81554.438 105385.539 -81649.676 105480.777 -81744.914 105576.015 -81649.676 105480.777 -81554.438 105480.777 -81744.914 M 106147.444 -82221.104 106909.348 -82221.104 M 106433.158 -81554.438 106433.158 -83268.723 106528.396 -83459.2 106718.872 -83554.438 106909.348 -83554.438 M 108433.158 -83459.2 108242.682 -83554.438 107861.729 -83554.438 107671.253 -83459.2 107576.015 -83363.961 107480.777 -83173.485 107480.777 -82602.057 107576.015 -82411.58 107671.253 -82316.342 107861.729 -82221.104 108242.682 -82221.104 108433.158 -82316.342 M 109290.301 -83554.438 109290.301 -81554.438 M 110147.444 -83554.438 110147.444 -82506.819 110052.206 -82316.342 109861.73 -82221.104 109576.015 -82221.104 109385.539 -82316.342 109290.301 -82411.58" fill="none" stroke-width="400"/><path d="M 91408.207 -86820.099 91074.874 -86343.908 M 90836.779 -86820.099 90836.779 -85820.099 91217.731 -85820.099 91312.969 -85867.718 91360.588 -85915.337 91408.207 -86010.575 91408.207 -86153.432 91360.588 -86248.67 91312.969 -86296.289 91217.731 -86343.908 90836.779 -86343.908 M 92265.35 -86820.099 92265.35 -86296.289 92217.731 -86201.051 92122.493 -86153.432 91932.017 -86153.432 91836.779 -86201.051 M 92265.35 -86772.48 92170.112 -86820.099 91932.017 -86820.099 91836.779 -86772.48 91789.16 -86677.241 91789.16 -86582.003 91836.779 -86486.765 91932.017 -86439.146 92170.112 -86439.146 92265.35 -86391.527 M 93170.112 -86820.099 93170.112 -85820.099 M 93170.112 -86772.48 93074.874 -86820.099 92884.398 -86820.099 92789.16 -86772.48 92741.541 -86724.86 92693.922 -86629.622 92693.922 -86343.908 92741.541 -86248.67 92789.16 -86201.051 92884.398 -86153.432 93074.874 -86153.432 93170.112 -86201.051 M 93646.303 -86820.099 93646.303 -86153.432 M 93646.303 -85820.099 93598.684 -85867.718 93646.303 -85915.337 93693.922 -85867.718 93646.303 -85820.099 93646.303 -85915.337 M 94265.35 -86820.099 94170.112 -86772.48 94122.493 -86724.86 94074.874 -86629.622 94074.874 -86343.908 94122.493 -86248.67 94170.112 -86201.051 94265.35 -86153.432 94408.207 -86153.432 94503.445 -86201.051 94551.064 -86248.67 94598.683 -86343.908 94598.683 -86629.622 94551.064 -86724.86 94503.445 -86772.48 94408.207 -86820.099 94265.35 -86820.099 M 95693.922 -85820.099 95932.017 -86820.099 96122.493 -86105.813 96312.969 -86820.099 96551.065 -85820.099 M 97360.588 -86820.099 97360.588 -86296.289 97312.969 -86201.051 97217.731 -86153.432 97027.255 -86153.432 96932.017 -86201.051 M 97360.588 -86772.48 97265.35 -86820.099 97027.255 -86820.099 96932.017 -86772.48 96884.398 -86677.241 96884.398 -86582.003 96932.017 -86486.765 97027.255 -86439.146 97265.35 -86439.146 97360.588 -86391.527 M 97741.541 -86153.432 97979.636 -86820.099 98217.731 -86153.432 M 98979.636 -86772.48 98884.398 -86820.099 98693.922 -86820.099 98598.684 -86772.48 98551.065 -86677.241 98551.065 -86296.289 98598.684 -86201.051 98693.922 -86153.432 98884.398 -86153.432 98979.636 -86201.051 99027.255 -86296.289 99027.255 -86391.527 98551.065 -86486.765 M 100217.732 -86820.099 100217.732 -85820.099 100455.827 -85820.099 100598.684 -85867.718 100693.922 -85962.956 100741.541 -86058.194 100789.16 -86248.67 100789.16 -86391.527 100741.541 -86582.003 100693.922 -86677.241 100598.684 -86772.48 100455.827 -86820.099 100217.732 -86820.099 M 101598.684 -86772.48 101503.446 -86820.099 101312.97 -86820.099 101217.732 -86772.48 101170.113 -86677.241 101170.113 -86296.289 101217.732 -86201.051 101312.97 -86153.432 101503.446 -86153.432 101598.684 -86201.051 101646.303 -86296.289 101646.303 -86391.527 101170.113 -86486.765 M 101932.018 -86153.432 102312.97 -86153.432 M 102074.875 -85820.099 102074.875 -86677.241 102122.494 -86772.48 102217.732 -86820.099 102312.97 -86820.099 M 103027.256 -86772.48 102932.018 -86820.099 102741.542 -86820.099 102646.304 -86772.48 102598.685 -86677.241 102598.685 -86296.289 102646.304 -86201.051 102741.542 -86153.432 102932.018 -86153.432 103027.256 -86201.051 103074.875 -86296.289 103074.875 -86391.527 102598.685 -86486.765 M 103932.018 -86772.48 103836.78 -86820.099 103646.304 -86820.099 103551.066 -86772.48 103503.447 -86724.86 103455.828 -86629.622 103455.828 -86343.908 103503.447 -86248.67 103551.066 -86201.051 103646.304 -86153.432 103836.78 -86153.432 103932.018 -86201.051 M 104217.733 -86153.432 104598.685 -86153.432 M 104360.59 -85820.099 104360.59 -86677.241 104408.209 -86772.48 104503.447 -86820.099 104598.685 -86820.099 M 105074.876 -86820.099 104979.638 -86772.48 104932.019 -86724.86 104884.4 -86629.622 104884.4 -86343.908 104932.019 -86248.67 104979.638 -86201.051 105074.876 -86153.432 105217.733 -86153.432 105312.971 -86201.051 105360.59 -86248.67 105408.209 -86343.908 105408.209 -86629.622 105360.59 -86724.86 105312.971 -86772.48 105217.733 -86820.099 105074.876 -86820.099 M 105836.781 -86820.099 105836.781 -86153.432 M 105836.781 -86343.908 105884.4 -86248.67 105932.019 -86201.051 106027.257 -86153.432 106122.495 -86153.432 M 90836.779 -90039.987 90836.779 -89039.987 91217.731 -89039.987 91312.969 -89087.606 91360.588 -89135.225 91408.207 -89230.463 91408.207 -89373.32 91360.588 -89468.558 91312.969 -89516.177 91217.731 -89563.796 90836.779 -89563.796 M 91836.779 -90039.987 91836.779 -89373.32 M 91836.779 -89563.796 91884.398 -89468.558 91932.017 -89420.939 92027.255 -89373.32 92122.493 -89373.32 M 92836.779 -89992.368 92741.541 -90039.987 92551.065 -90039.987 92455.827 -89992.368 92408.208 -89897.129 92408.208 -89516.177 92455.827 -89420.939 92551.065 -89373.32 92741.541 -89373.32 92836.779 -89420.939 92884.398 -89516.177 92884.398 -89611.415 92408.208 -89706.653 M 93265.351 -89992.368 93360.589 -90039.987 93551.065 -90039.987 93646.303 -89992.368 93693.922 -89897.129 93693.922 -89849.51 93646.303 -89754.272 93551.065 -89706.653 93408.208 -89706.653 93312.97 -89659.034 93265.351 -89563.796 93265.351 -89516.177 93312.97 -89420.939 93408.208 -89373.32 93551.065 -89373.32 93646.303 -89420.939 M 94503.446 -89992.368 94408.208 -90039.987 94217.732 -90039.987 94122.494 -89992.368 94074.875 -89897.129 94074.875 -89516.177 94122.494 -89420.939 94217.732 -89373.32 94408.208 -89373.32 94503.446 -89420.939 94551.065 -89516.177 94551.065 -89611.415 94074.875 -89706.653 M 94979.637 -89373.32 94979.637 -90039.987 M 94979.637 -89468.558 95027.256 -89420.939 95122.494 -89373.32 95265.351 -89373.32 95360.589 -89420.939 95408.208 -89516.177 95408.208 -90039.987 M 95741.542 -89373.32 96122.494 -89373.32 M 95884.399 -89039.987 95884.399 -89897.129 95932.018 -89992.368 96027.256 -90039.987 96122.494 -90039.987 M 96836.78 -89992.368 96741.542 -90039.987 96551.066 -90039.987 96455.828 -89992.368 96408.209 -89897.129 96408.209 -89516.177 96455.828 -89420.939 96551.066 -89373.32 96741.542 -89373.32 96836.78 -89420.939 96884.399 -89516.177 96884.399 -89611.415 96408.209 -89706.653 M 97741.542 -90039.987 97741.542 -89039.987 M 97741.542 -89992.368 97646.304 -90039.987 97455.828 -90039.987 97360.59 -89992.368 97312.971 -89944.748 97265.352 -89849.51 97265.352 -89563.796 97312.971 -89468.558 97360.59 -89420.939 97455.828 -89373.32 97646.304 -89373.32 97741.542 -89420.939 M 98979.638 -90039.987 98979.638 -89039.987 M 98979.638 -89420.939 99074.876 -89373.32 99265.352 -89373.32 99360.59 -89420.939 99408.209 -89468.558 99455.828 -89563.796 99455.828 -89849.51 99408.209 -89944.748 99360.59 -89992.368 99265.352 -90039.987 99074.876 -90039.987 98979.638 -89992.368 M 99789.162 -89373.32 100027.257 -90039.987 M 100265.352 -89373.32 100027.257 -90039.987 99932.019 -90278.082 99884.4 -90325.701 99789.162 -90373.32 M 101360.591 -89754.272 101836.781 -89754.272 M 101265.353 -90039.987 101598.686 -89039.987 101932.019 -90039.987 M 102265.353 -90039.987 102265.353 -89039.987 102598.686 -89754.272 102932.019 -89039.987 102932.019 -90039.987 M 103360.591 -89992.368 103503.448 -90039.987 103741.543 -90039.987 103836.781 -89992.368 103884.4 -89944.748 103932.019 -89849.51 103932.019 -89754.272 103884.4 -89659.034 103836.781 -89611.415 103741.543 -89563.796 103551.067 -89516.177 103455.829 -89468.558 103408.21 -89420.939 103360.591 -89325.701 103360.591 -89230.463 103408.21 -89135.225 103455.829 -89087.606 103551.067 -89039.987 103789.162 -89039.987 103932.019 -89087.606 M 104312.972 -89754.272 104789.162 -89754.272 M 104217.734 -90039.987 104551.067 -89039.987 104884.4 -90039.987 M 105074.877 -89039.987 105646.305 -89039.987 M 105360.591 -90039.987 105360.591 -89039.987 M 105979.639 -89659.034 106741.544 -89659.034 M 107217.734 -90039.987 107217.734 -89039.987 M 107217.734 -89516.177 107789.162 -89516.177 M 107789.162 -90039.987 107789.162 -89039.987 M 108598.686 -89516.177 108741.543 -89563.796 108789.162 -89611.415 108836.781 -89706.653 108836.781 -89849.51 108789.162 -89944.748 108741.543 -89992.368 108646.305 -90039.987 108265.353 -90039.987 108265.353 -89039.987 108598.686 -89039.987 108693.924 -89087.606 108741.543 -89135.225 108789.162 -89230.463 108789.162 -89325.701 108741.543 -89420.939 108693.924 -89468.558 108598.686 -89516.177 108265.353 -89516.177 M 110455.829 -90039.987 110455.829 -89516.177 110408.21 -89420.939 110312.972 -89373.32 110122.496 -89373.32 110027.258 -89420.939 M 110455.829 -89992.368 110360.591 -90039.987 110122.496 -90039.987 110027.258 -89992.368 109979.639 -89897.129 109979.639 -89801.891 110027.258 -89706.653 110122.496 -89659.034 110360.591 -89659.034 110455.829 -89611.415 M 110932.02 -89373.32 110932.02 -90039.987 M 110932.02 -89468.558 110979.639 -89420.939 111074.877 -89373.32 111217.734 -89373.32 111312.972 -89420.939 111360.591 -89516.177 111360.591 -90039.987 M 112265.353 -90039.987 112265.353 -89039.987 M 112265.353 -89992.368 112170.115 -90039.987 111979.639 -90039.987 111884.401 -89992.368 111836.782 -89944.748 111789.163 -89849.51 111789.163 -89563.796 111836.782 -89468.558 111884.401 -89420.939 111979.639 -89373.32 112170.115 -89373.32 112265.353 -89420.939 M 113503.449 -90039.987 113503.449 -89039.987 M 113503.449 -89516.177 114074.877 -89516.177 M 114074.877 -90039.987 114074.877 -89039.987 M 114884.401 -89516.177 115027.258 -89563.796 115074.877 -89611.415 115122.496 -89706.653 115122.496 -89849.51 115074.877 -89944.748 115027.258 -89992.368 114932.02 -90039.987 114551.068 -90039.987 114551.068 -89039.987 114884.401 -89039.987 114979.639 -89087.606 115027.258 -89135.225 115074.877 -89230.463 115074.877 -89325.701 115027.258 -89420.939 114979.639 -89468.558 114884.401 -89516.177 114551.068 -89516.177 M 115598.687 -90039.987 115789.163 -90039.987 115884.401 -89992.368 115932.02 -89944.748 116027.258 -89801.891 116074.877 -89611.415 116074.877 -89230.463 116027.258 -89135.225 115979.639 -89087.606 115884.401 -89039.987 115693.925 -89039.987 115598.687 -89087.606 115551.068 -89135.225 115503.449 -89230.463 115503.449 -89468.558 115551.068 -89563.796 115598.687 -89611.415 115693.925 -89659.034 115884.401 -89659.034 115979.639 -89611.415 116027.258 -89563.796 116074.877 -89468.558 M 116503.449 -89039.987 116503.449 -89849.51 116551.068 -89944.748 116598.687 -89992.368 116693.925 -90039.987 116884.401 -90039.987 116979.639 -89992.368 117027.258 -89944.748 117074.877 -89849.51 117074.877 -89039.987 M 117884.401 -89516.177 117551.068 -89516.177 M 117551.068 -90039.987 117551.068 -89039.987 118027.258 -89039.987 M 90836.779 -93259.875 90836.779 -92259.875 91074.874 -92259.875 91217.731 -92307.494 91312.969 -92402.732 91360.588 -92497.97 91408.207 -92688.446 91408.207 -92831.303 91360.588 -93021.779 91312.969 -93117.017 91217.731 -93212.256 91074.874 -93259.875 90836.779 -93259.875 M 92217.731 -93212.256 92122.493 -93259.875 91932.017 -93259.875 91836.779 -93212.256 91789.16 -93117.017 91789.16 -92736.065 91836.779 -92640.827 91932.017 -92593.208 92122.493 -92593.208 92217.731 -92640.827 92265.35 -92736.065 92265.35 -92831.303 91789.16 -92926.541 M 92646.303 -93212.256 92741.541 -93259.875 92932.017 -93259.875 93027.255 -93212.256 93074.874 -93117.017 93074.874 -93069.398 93027.255 -92974.16 92932.017 -92926.541 92789.16 -92926.541 92693.922 -92878.922 92646.303 -92783.684 92646.303 -92736.065 92693.922 -92640.827 92789.16 -92593.208 92932.017 -92593.208 93027.255 -92640.827 M 93503.446 -93259.875 93503.446 -92593.208 M 93503.446 -92259.875 93455.827 -92307.494 93503.446 -92355.113 93551.065 -92307.494 93503.446 -92259.875 93503.446 -92355.113 M 94408.207 -92593.208 94408.207 -93402.732 94360.588 -93497.97 94312.969 -93545.589 94217.731 -93593.208 94074.874 -93593.208 93979.636 -93545.589 M 94408.207 -93212.256 94312.969 -93259.875 94122.493 -93259.875 94027.255 -93212.256 93979.636 -93164.636 93932.017 -93069.398 93932.017 -92783.684 93979.636 -92688.446 94027.255 -92640.827 94122.493 -92593.208 94312.969 -92593.208 94408.207 -92640.827 M 94884.398 -92593.208 94884.398 -93259.875 M 94884.398 -92688.446 94932.017 -92640.827 95027.255 -92593.208 95170.112 -92593.208 95265.35 -92640.827 95312.969 -92736.065 95312.969 -93259.875 M 95789.16 -93164.636 95836.779 -93212.256 95789.16 -93259.875 95741.541 -93212.256 95789.16 -93164.636 95789.16 -93259.875 M 95789.16 -92640.827 95836.779 -92688.446 95789.16 -92736.065 95741.541 -92688.446 95789.16 -92640.827 95789.16 -92736.065 M 96979.636 -92974.16 97455.826 -92974.16 M 96884.398 -93259.875 97217.731 -92259.875 97551.064 -93259.875 M 97884.398 -92593.208 97884.398 -93259.875 M 97884.398 -92688.446 97932.017 -92640.827 98027.255 -92593.208 98170.112 -92593.208 98265.35 -92640.827 98312.969 -92736.065 98312.969 -93259.875 M 99217.731 -93259.875 99217.731 -92259.875 M 99217.731 -93212.256 99122.493 -93259.875 98932.017 -93259.875 98836.779 -93212.256 98789.16 -93164.636 98741.541 -93069.398 98741.541 -92783.684 98789.16 -92688.446 98836.779 -92640.827 98932.017 -92593.208 99122.493 -92593.208 99217.731 -92640.827 M 99693.922 -93259.875 99693.922 -92593.208 M 99693.922 -92783.684 99741.541 -92688.446 99789.16 -92640.827 99884.398 -92593.208 99979.636 -92593.208 M 100693.922 -93212.256 100598.684 -93259.875 100408.208 -93259.875 100312.97 -93212.256 100265.351 -93117.017 100265.351 -92736.065 100312.97 -92640.827 100408.208 -92593.208 100598.684 -92593.208 100693.922 -92640.827 100741.541 -92736.065 100741.541 -92831.303 100265.351 -92926.541 M 101598.684 -93259.875 101598.684 -92736.065 101551.065 -92640.827 101455.827 -92593.208 101265.351 -92593.208 101170.113 -92640.827 M 101598.684 -93212.256 101503.446 -93259.875 101265.351 -93259.875 101170.113 -93212.256 101122.494 -93117.017 101122.494 -93021.779 101170.113 -92926.541 101265.351 -92878.922 101503.446 -92878.922 101598.684 -92831.303 M 102027.256 -93212.256 102122.494 -93259.875 102312.97 -93259.875 102408.208 -93212.256 102455.827 -93117.017 102455.827 -93069.398 102408.208 -92974.16 102312.97 -92926.541 102170.113 -92926.541 102074.875 -92878.922 102027.256 -92783.684 102027.256 -92736.065 102074.875 -92640.827 102170.113 -92593.208 102312.97 -92593.208 102408.208 -92640.827 M 103646.304 -93259.875 103646.304 -92259.875 M 103646.304 -92736.065 104217.732 -92736.065 M 104217.732 -93259.875 104217.732 -92259.875 M 105027.256 -92736.065 105170.113 -92783.684 105217.732 -92831.303 105265.351 -92926.541 105265.351 -93069.398 105217.732 -93164.636 105170.113 -93212.256 105074.875 -93259.875 104693.923 -93259.875 104693.923 -92259.875 105027.256 -92259.875 105122.494 -92307.494 105170.113 -92355.113 105217.732 -92450.351 105217.732 -92545.589 105170.113 -92640.827 105122.494 -92688.446 105027.256 -92736.065 104693.923 -92736.065 M 105741.542 -93259.875 105932.018 -93259.875 106027.256 -93212.256 106074.875 -93164.636 106170.113 -93021.779 106217.732 -92831.303 106217.732 -92450.351 106170.113 -92355.113 106122.494 -92307.494 106027.256 -92259.875 105836.78 -92259.875 105741.542 -92307.494 105693.923 -92355.113 105646.304 -92450.351 105646.304 -92688.446 105693.923 -92783.684 105741.542 -92831.303 105836.78 -92878.922 106027.256 -92878.922 106122.494 -92831.303 106170.113 -92783.684 106217.732 -92688.446 M 106646.304 -93259.875 106646.304 -92259.875 M 106646.304 -92736.065 107217.732 -92736.065 M 107217.732 -93259.875 107217.732 -92259.875 M 107693.923 -93259.875 107693.923 -92259.875 107932.018 -92259.875 108074.875 -92307.494 108170.113 -92402.732 108217.732 -92497.97 108265.351 -92688.446 108265.351 -92831.303 108217.732 -93021.779 108170.113 -93117.017 108074.875 -93212.256 107932.018 -93259.875 107693.923 -93259.875 M 109027.256 -92736.065 108693.923 -92736.065 M 108693.923 -93259.875 108693.923 -92259.875 109170.113 -92259.875 M 132312.969 -100369.819 131836.779 -100369.819 131836.779 -99369.819 M 132789.16 -100369.819 132693.922 -100322.2 132646.303 -100274.58 132598.684 -100179.342 132598.684 -99893.628 132646.303 -99798.39 132693.922 -99750.771 132789.16 -99703.152 132932.017 -99703.152 133027.255 -99750.771 133074.874 -99798.39 133122.493 -99893.628 133122.493 -100179.342 133074.874 -100274.58 133027.255 -100322.2 132932.017 -100369.819 132789.16 -100369.819 M 133551.065 -99703.152 133551.065 -100369.819 M 133551.065 -99798.39 133598.684 -99750.771 133693.922 -99703.152 133836.779 -99703.152 133932.017 -99750.771 133979.636 -99846.009 133979.636 -100369.819 M 134884.398 -99703.152 134884.398 -100512.676 134836.779 -100607.914 134789.16 -100655.533 134693.922 -100703.152 134551.065 -100703.152 134455.827 -100655.533 M 134884.398 -100322.2 134789.16 -100369.819 134598.684 -100369.819 134503.446 -100322.2 134455.827 -100274.58 134408.208 -100179.342 134408.208 -99893.628 134455.827 -99798.39 134503.446 -99750.771 134598.684 -99703.152 134789.16 -99703.152 134884.398 -99750.771 M 136598.684 -100369.819 136122.494 -100369.819 136122.494 -99369.819 M 137312.97 -100322.2 137217.732 -100369.819 137027.256 -100369.819 136932.018 -100322.2 136884.399 -100226.961 136884.399 -99846.009 136932.018 -99750.771 137027.256 -99703.152 137217.732 -99703.152 137312.97 -99750.771 137360.589 -99846.009 137360.589 -99941.247 136884.399 -100036.485 M 138217.732 -99703.152 138217.732 -100512.676 138170.113 -100607.914 138122.494 -100655.533 138027.256 -100703.152 137884.399 -100703.152 137789.161 -100655.533 M 138217.732 -100322.2 138122.494 -100369.819 137932.018 -100369.819 137836.78 -100322.2 137789.161 -100274.58 137741.542 -100179.342 137741.542 -99893.628 137789.161 -99798.39 137836.78 -99750.771 137932.018 -99703.152 138122.494 -99703.152 138217.732 -99750.771 M 136408.207 -130869.819 136074.874 -130393.628 M 135836.779 -130869.819 135836.779 -129869.819 136217.731 -129869.819 136312.969 -129917.438 136360.588 -129965.057 136408.207 -130060.295 136408.207 -130203.152 136360.588 -130298.39 136312.969 -130346.009 136217.731 -130393.628 135836.779 -130393.628 M 137217.731 -130822.2 137122.493 -130869.819 136932.017 -130869.819 136836.779 -130822.2 136789.16 -130726.961 136789.16 -130346.009 136836.779 -130250.771 136932.017 -130203.152 137122.493 -130203.152 137217.731 -130250.771 137265.35 -130346.009 137265.35 -130441.247 136789.16 -130536.485 M 137693.922 -130869.819 137693.922 -130203.152 M 137693.922 -130298.39 137741.541 -130250.771 137836.779 -130203.152 137979.636 -130203.152 138074.874 -130250.771 138122.493 -130346.009 138122.493 -130869.819 M 138122.493 -130346.009 138170.112 -130250.771 138265.35 -130203.152 138408.207 -130203.152 138503.446 -130250.771 138551.065 -130346.009 138551.065 -130869.819 M 139408.207 -130822.2 139312.969 -130869.819 139122.493 -130869.819 139027.255 -130822.2 138979.636 -130726.961 138979.636 -130346.009 139027.255 -130250.771 139122.493 -130203.152 139312.969 -130203.152 139408.207 -130250.771 139455.826 -130346.009 139455.826 -130441.247 138979.636 -130536.485 M 139884.398 -130869.819 139884.398 -130203.152 M 139884.398 -130298.39 139932.017 -130250.771 140027.255 -130203.152 140170.112 -130203.152 140265.35 -130250.771 140312.969 -130346.009 140312.969 -130869.819 M 140312.969 -130346.009 140360.588 -130250.771 140455.826 -130203.152 140598.683 -130203.152 140693.922 -130250.771 140741.541 -130346.009 140741.541 -130869.819 M 141217.731 -130869.819 141217.731 -129869.819 M 141217.731 -130250.771 141312.969 -130203.152 141503.445 -130203.152 141598.683 -130250.771 141646.302 -130298.39 141693.921 -130393.628 141693.921 -130679.342 141646.302 -130774.58 141598.683 -130822.2 141503.445 -130869.819 141312.969 -130869.819 141217.731 -130822.2 M 142503.445 -130822.2 142408.207 -130869.819 142217.731 -130869.819 142122.493 -130822.2 142074.874 -130726.961 142074.874 -130346.009 142122.493 -130250.771 142217.731 -130203.152 142408.207 -130203.152 142503.445 -130250.771 142551.064 -130346.009 142551.064 -130441.247 142074.874 -130536.485 M 142979.636 -130869.819 142979.636 -130203.152 M 142979.636 -130393.628 143027.255 -130298.39 143074.874 -130250.771 143170.112 -130203.152 143265.35 -130203.152 M 144217.732 -130203.152 144598.684 -130203.152 M 144360.589 -129869.819 144360.589 -130726.961 144408.208 -130822.2 144503.446 -130869.819 144598.684 -130869.819 M 145074.875 -130869.819 144979.637 -130822.2 144932.018 -130774.58 144884.399 -130679.342 144884.399 -130393.628 144932.018 -130298.39 144979.637 -130250.771 145074.875 -130203.152 145217.732 -130203.152 145312.97 -130250.771 145360.589 -130298.39 145408.208 -130393.628 145408.208 -130679.342 145360.589 -130774.58 145312.97 -130822.2 145217.732 -130869.819 145074.875 -130869.819 M 146598.685 -130869.819 146598.685 -130203.152 M 146598.685 -130393.628 146646.304 -130298.39 146693.923 -130250.771 146789.161 -130203.152 146884.399 -130203.152 M 147598.685 -130822.2 147503.447 -130869.819 147312.971 -130869.819 147217.733 -130822.2 147170.114 -130726.961 147170.114 -130346.009 147217.733 -130250.771 147312.971 -130203.152 147503.447 -130203.152 147598.685 -130250.771 147646.304 -130346.009 147646.304 -130441.247 147170.114 -130536.485 M 148074.876 -130869.819 148074.876 -130203.152 M 148074.876 -130298.39 148122.495 -130250.771 148217.733 -130203.152 148360.59 -130203.152 148455.828 -130250.771 148503.447 -130346.009 148503.447 -130869.819 M 148503.447 -130346.009 148551.066 -130250.771 148646.304 -130203.152 148789.161 -130203.152 148884.4 -130250.771 148932.019 -130346.009 148932.019 -130869.819 M 149551.066 -130869.819 149455.828 -130822.2 149408.209 -130774.58 149360.59 -130679.342 149360.59 -130393.628 149408.209 -130298.39 149455.828 -130250.771 149551.066 -130203.152 149693.923 -130203.152 149789.161 -130250.771 149836.78 -130298.39 149884.399 -130393.628 149884.399 -130679.342 149836.78 -130774.58 149789.161 -130822.2 149693.923 -130869.819 149551.066 -130869.819 M 150217.733 -130203.152 150455.828 -130869.819 150693.923 -130203.152 M 151455.828 -130822.2 151360.59 -130869.819 151170.114 -130869.819 151074.876 -130822.2 151027.257 -130726.961 151027.257 -130346.009 151074.876 -130250.771 151170.114 -130203.152 151360.59 -130203.152 151455.828 -130250.771 151503.447 -130346.009 151503.447 -130441.247 151027.257 -130536.485 M 152693.924 -130869.819 152693.924 -129869.819 M 152693.924 -130250.771 152789.162 -130203.152 152979.638 -130203.152 153074.876 -130250.771 153122.495 -130298.39 153170.114 -130393.628 153170.114 -130679.342 153122.495 -130774.58 153074.876 -130822.2 152979.638 -130869.819 152789.162 -130869.819 152693.924 -130822.2 M 154027.257 -130869.819 154027.257 -130346.009 153979.638 -130250.771 153884.4 -130203.152 153693.924 -130203.152 153598.686 -130250.771 M 154027.257 -130822.2 153932.019 -130869.819 153693.924 -130869.819 153598.686 -130822.2 153551.067 -130726.961 153551.067 -130631.723 153598.686 -130536.485 153693.924 -130488.866 153932.019 -130488.866 154027.257 -130441.247 M 154360.591 -130203.152 154741.543 -130203.152 M 154503.448 -129869.819 154503.448 -130726.961 154551.067 -130822.2 154646.305 -130869.819 154741.543 -130869.819 M 154932.02 -130203.152 155312.972 -130203.152 M 155074.877 -129869.819 155074.877 -130726.961 155122.496 -130822.2 155217.734 -130869.819 155312.972 -130869.819 M 156027.258 -130822.2 155932.02 -130869.819 155741.544 -130869.819 155646.306 -130822.2 155598.687 -130726.961 155598.687 -130346.009 155646.306 -130250.771 155741.544 -130203.152 155932.02 -130203.152 156027.258 -130250.771 156074.877 -130346.009 156074.877 -130441.247 155598.687 -130536.485 M 156503.449 -130869.819 156503.449 -130203.152 M 156503.449 -130393.628 156551.068 -130298.39 156598.687 -130250.771 156693.925 -130203.152 156789.163 -130203.152 M 157122.497 -130869.819 157122.497 -130203.152 M 157122.497 -129869.819 157074.878 -129917.438 157122.497 -129965.057 157170.116 -129917.438 157122.497 -129869.819 157122.497 -129965.057 M 157979.639 -130822.2 157884.401 -130869.819 157693.925 -130869.819 157598.687 -130822.2 157551.068 -130726.961 157551.068 -130346.009 157598.687 -130250.771 157693.925 -130203.152 157884.401 -130203.152 157979.639 -130250.771 158027.258 -130346.009 158027.258 -130441.247 157551.068 -130536.485 M 158408.211 -130822.2 158503.449 -130869.819 158693.925 -130869.819 158789.163 -130822.2 158836.782 -130726.961 158836.782 -130679.342 158789.163 -130584.104 158693.925 -130536.485 158551.068 -130536.485 158455.83 -130488.866 158408.211 -130393.628 158408.211 -130346.009 158455.83 -130250.771 158551.068 -130203.152 158693.925 -130203.152 158789.163 -130250.771 M 160455.83 -130869.819 160455.83 -130346.009 160408.211 -130250.771 160312.973 -130203.152 160122.497 -130203.152 160027.259 -130250.771 M 160455.83 -130822.2 160360.592 -130869.819 160122.497 -130869.819 160027.259 -130822.2 159979.64 -130726.961 159979.64 -130631.723 160027.259 -130536.485 160122.497 -130488.866 160360.592 -130488.866 160455.83 -130441.247 M 160789.164 -130203.152 161170.116 -130203.152 M 160932.021 -130869.819 160932.021 -130012.676 160979.64 -129917.438 161074.878 -129869.819 161170.116 -129869.819 M 161360.593 -130203.152 161741.545 -130203.152 M 161503.45 -129869.819 161503.45 -130726.961 161551.069 -130822.2 161646.307 -130869.819 161741.545 -130869.819 M 162455.831 -130822.2 162360.593 -130869.819 162170.117 -130869.819 162074.879 -130822.2 162027.26 -130726.961 162027.26 -130346.009 162074.879 -130250.771 162170.117 -130203.152 162360.593 -130203.152 162455.831 -130250.771 162503.45 -130346.009 162503.45 -130441.247 162027.26 -130536.485 M 162932.022 -130869.819 162932.022 -130203.152 M 162932.022 -130393.628 162979.641 -130298.39 163027.26 -130250.771 163122.498 -130203.152 163217.736 -130203.152 M 164741.546 -130203.152 164741.546 -130869.819 M 164312.975 -130203.152 164312.975 -130726.961 164360.594 -130822.2 164455.832 -130869.819 164598.689 -130869.819 164693.927 -130822.2 164741.546 -130774.58 M 165170.118 -130822.2 165265.356 -130869.819 165455.832 -130869.819 165551.07 -130822.2 165598.689 -130726.961 165598.689 -130679.342 165551.07 -130584.104 165455.832 -130536.485 165312.975 -130536.485 165217.737 -130488.866 165170.118 -130393.628 165170.118 -130346.009 165217.737 -130250.771 165312.975 -130203.152 165455.832 -130203.152 165551.07 -130250.771 M 166408.213 -130822.2 166312.975 -130869.819 166122.499 -130869.819 166027.261 -130822.2 165979.642 -130726.961 165979.642 -130346.009 166027.261 -130250.771 166122.499 -130203.152 166312.975 -130203.152 166408.213 -130250.771 166455.832 -130346.009 166455.832 -130441.247 165979.642 -130536.485 M 166884.404 -130774.58 166932.023 -130822.2 166884.404 -130869.819 166836.785 -130822.2 166884.404 -130774.58 166884.404 -130869.819 M 166884.404 -130488.866 166836.785 -129917.438 166884.404 -129869.819 166932.023 -129917.438 166884.404 -130488.866 166884.404 -129869.819 M 128854.819 -126395.238 127854.819 -126395.238 127854.819 -126014.286 127902.438 -125919.048 127950.057 -125871.429 128045.295 -125823.81 128188.152 -125823.81 128283.39 -125871.429 128331.009 -125919.048 128378.628 -126014.286 128378.628 -126395.238 M 128854.819 -125252.381 128807.2 -125347.619 128759.58 -125395.238 128664.342 -125442.857 128378.628 -125442.857 128283.39 -125395.238 128235.771 -125347.619 128188.152 -125252.381 128188.152 -125109.524 128235.771 -125014.286 128283.39 -124966.667 128378.628 -124919.048 128664.342 -124919.048 128759.58 -124966.667 128807.2 -125014.286 128854.819 -125109.524 128854.819 -125252.381 M 128188.152 -124633.333 128188.152 -124252.381 M 127854.819 -124490.476 128711.961 -124490.476 128807.2 -124442.857 128854.819 -124347.619 128854.819 -124252.381 M 128854.819 -123395.238 128854.819 -123966.666 M 128854.819 -123680.952 127854.819 -123680.952 127997.676 -123776.19 128092.914 -123871.428 128140.533 -123966.666 M 128854.819 -120919.047 128854.819 -121490.475 M 128854.819 -121204.761 127854.819 -121204.761 127997.676 -121299.999 128092.914 -121395.237 128140.533 -121490.475 M 127854.819 -120299.999 127854.819 -120204.761 127902.438 -120109.523 127950.057 -120061.904 128045.295 -120014.285 128235.771 -119966.666 128473.866 -119966.666 128664.342 -120014.285 128759.58 -120061.904 128807.2 -120109.523 128854.819 -120204.761 128854.819 -120299.999 128807.2 -120395.237 128759.58 -120442.856 128664.342 -120490.475 128473.866 -120538.094 128235.771 -120538.094 128045.295 -120490.475 127950.057 -120442.856 127902.438 -120395.237 127854.819 -120299.999 M 128854.819 -119538.094 127854.819 -119538.094 M 128473.866 -119442.856 128854.819 -119157.142 M 128188.152 -119157.142 128569.104 -119538.094 M 89463.809 -125899.104 89939.999 -125899.104 M 89368.571 -126184.819 89701.904 -125184.819 90035.237 -126184.819 M 90368.571 -125518.152 90368.571 -126184.819 M 90368.571 -125613.39 90416.19 -125565.771 90511.428 -125518.152 90654.285 -125518.152 90749.523 -125565.771 90797.142 -125661.009 90797.142 -126184.819 M 91130.476 -125518.152 91511.428 -125518.152 M 91273.333 -125184.819 91273.333 -126041.961 91320.952 -126137.2 91416.19 -126184.819 91511.428 -126184.819 M 92606.667 -125803.866 93368.572 -125803.866 M 142531.009 -98385.714 142578.628 -98242.857 142626.247 -98195.238 142721.485 -98147.619 142864.342 -98147.619 142959.58 -98195.238 143007.2 -98242.857 143054.819 -98338.095 143054.819 -98719.047 142054.819 -98719.047 142054.819 -98385.714 142102.438 -98290.476 142150.057 -98242.857 142245.295 -98195.238 142340.533 -98195.238 142435.771 -98242.857 142483.39 -98290.476 142531.009 -98385.714 142531.009 -98719.047 M 142054.819 -97861.904 142054.819 -97290.476 M 143054.819 -97576.19 142054.819 -97576.19 M 143054.819 -96433.333 143054.819 -97004.761 M 143054.819 -96719.047 142054.819 -96719.047 142197.676 -96814.285 142292.914 -96909.523 142340.533 -97004.761 M 113414.285 -106850.057 113319.047 -106802.438 113223.809 -106707.2 113080.952 -106564.342 112985.714 -106516.723 112890.476 -106516.723 M 112938.095 -106754.819 112842.857 -106707.2 112747.619 -106611.961 112700 -106421.485 112700 -106088.152 112747.619 -105897.676 112842.857 -105802.438 112938.095 -105754.819 113128.571 -105754.819 113223.809 -105802.438 113319.047 -105897.676 113366.666 -106088.152 113366.666 -106421.485 113319.047 -106611.961 113223.809 -106707.2 113128.571 -106754.819 112938.095 -106754.819 M 114319.047 -106754.819 113747.619 -106754.819 M 114033.333 -106754.819 114033.333 -105754.819 113938.095 -105897.676 113842.857 -105992.914 113747.619 -106040.533 M 115795.238 -105754.819 115795.238 -106469.104 115747.619 -106611.961 115652.381 -106707.2 115509.524 -106754.819 115414.286 -106754.819 M 116223.81 -105850.057 116271.429 -105802.438 116366.667 -105754.819 116604.762 -105754.819 116700 -105802.438 116747.619 -105850.057 116795.238 -105945.295 116795.238 -106040.533 116747.619 -106183.39 116176.191 -106754.819 116795.238 -106754.819 M 117747.619 -106754.819 117176.191 -106754.819 M 117461.905 -106754.819 117461.905 -105754.819 117366.667 -105897.676 117271.429 -105992.914 117176.191 -106040.533 M 118700 -106754.819 118128.572 -106754.819 M 118414.286 -106754.819 118414.286 -105754.819 118319.048 -105897.676 118223.81 -105992.914 118128.572 -106040.533 M 101954.819 -125238.094 100954.819 -125238.094 100954.819 -124999.999 101002.438 -124857.142 101097.676 -124761.904 101192.914 -124714.285 101383.39 -124666.666 101526.247 -124666.666 101716.723 -124714.285 101811.961 -124761.904 101907.2 -124857.142 101954.819 -124999.999 101954.819 -125238.094 M 101050.057 -124285.713 101002.438 -124238.094 100954.819 -124142.856 100954.819 -123904.761 101002.438 -123809.523 101050.057 -123761.904 101145.295 -123714.285 101240.533 -123714.285 101383.39 -123761.904 101954.819 -124333.332 101954.819 -123714.285 M 101954.819 -121261.904 100954.819 -121261.904 M 101954.819 -120690.476 101383.39 -121119.047 M 100954.819 -120690.476 101526.247 -121261.904 M 128514.819 -103512.857 128514.819 -103989.047 127514.819 -103989.047 M 127991.009 -103179.523 127991.009 -102846.19 M 128514.819 -102703.333 128514.819 -103179.523 127514.819 -103179.523 127514.819 -102703.333 M 128514.819 -102274.761 127514.819 -102274.761 127514.819 -102036.666 127562.438 -101893.809 127657.676 -101798.571 127752.914 -101750.952 127943.39 -101703.333 128086.247 -101703.333 128276.723 -101750.952 128371.961 -101798.571 128467.2 -101893.809 128514.819 -102036.666 128514.819 -102274.761 M 121928.57 -86814.819 121595.237 -86338.628 M 121357.142 -86814.819 121357.142 -85814.819 121738.094 -85814.819 121833.332 -85862.438 121880.951 -85910.057 121928.57 -86005.295 121928.57 -86148.152 121880.951 -86243.39 121833.332 -86291.009 121738.094 -86338.628 121357.142 -86338.628 M 122880.951 -86814.819 122309.523 -86814.819 M 122595.237 -86814.819 122595.237 -85814.819 122499.999 -85957.676 122404.761 -86052.914 122309.523 -86100.533 M 126880.952 -86814.819 126309.524 -86814.819 M 126595.238 -86814.819 126595.238 -85814.819 126500 -85957.676 126404.762 -86052.914 126309.524 -86100.533 M 127309.524 -86814.819 127309.524 -85814.819 M 127404.762 -86433.866 127690.476 -86814.819 M 127690.476 -86148.152 127309.524 -86529.104 M 112214.819 -121737.143 111738.628 -122070.476 M 112214.819 -122308.571 111214.819 -122308.571 111214.819 -121927.619 111262.438 -121832.381 111310.057 -121784.762 111405.295 -121737.143 111548.152 -121737.143 111643.39 -121784.762 111691.009 -121832.381 111738.628 -121927.619 111738.628 -122308.571 M 111214.819 -121403.809 111214.819 -120784.762 111595.771 -121118.095 111595.771 -120975.238 111643.39 -120880 111691.009 -120832.381 111786.247 -120784.762 112024.342 -120784.762 112119.58 -120832.381 112167.2 -120880 112214.819 -120975.238 112214.819 -121260.952 112167.2 -121356.19 112119.58 -121403.809 M 112214.819 -117546.666 112214.819 -118118.094 M 112214.819 -117832.38 111214.819 -117832.38 111357.676 -117927.618 111452.914 -118022.856 111500.533 -118118.094 M 112214.819 -117118.094 111214.819 -117118.094 111929.104 -116784.761 111214.819 -116451.428 112214.819 -116451.428 M 133900.057 -93074.762 133852.438 -93170 133757.2 -93265.238 133614.342 -93408.095 133566.723 -93503.333 133566.723 -93598.571 M 133804.819 -93550.952 133757.2 -93646.19 133661.961 -93741.428 133471.485 -93789.047 133138.152 -93789.047 132947.676 -93741.428 132852.438 -93646.19 132804.819 -93550.952 132804.819 -93360.476 132852.438 -93265.238 132947.676 -93170 133138.152 -93122.381 133471.485 -93122.381 133661.961 -93170 133757.2 -93265.238 133804.819 -93360.476 133804.819 -93550.952 M 132900.057 -92741.428 132852.438 -92693.809 132804.819 -92598.571 132804.819 -92360.476 132852.438 -92265.238 132900.057 -92217.619 132995.295 -92170 133090.533 -92170 133233.39 -92217.619 133804.819 -92789.047 133804.819 -92170 M 133281.009 -90646.19 133328.628 -90503.333 133376.247 -90455.714 133471.485 -90408.095 133614.342 -90408.095 133709.58 -90455.714 133757.2 -90503.333 133804.819 -90598.571 133804.819 -90979.523 132804.819 -90979.523 132804.819 -90646.19 132852.438 -90550.952 132900.057 -90503.333 132995.295 -90455.714 133090.533 -90455.714 133185.771 -90503.333 133233.39 -90550.952 133281.009 -90646.19 133281.009 -90979.523 M 133709.58 -89408.095 133757.2 -89455.714 133804.819 -89598.571 133804.819 -89693.809 133757.2 -89836.666 133661.961 -89931.904 133566.723 -89979.523 133376.247 -90027.142 133233.39 -90027.142 133042.914 -89979.523 132947.676 -89931.904 132852.438 -89836.666 132804.819 -89693.809 132804.819 -89598.571 132852.438 -89455.714 132900.057 -89408.095 M 132804.819 -88503.333 132804.819 -88979.523 133281.009 -89027.142 133233.39 -88979.523 133185.771 -88884.285 133185.771 -88646.19 133233.39 -88550.952 133281.009 -88503.333 133376.247 -88455.714 133614.342 -88455.714 133709.58 -88503.333 133757.2 -88550.952 133804.819 -88646.19 133804.819 -88884.285 133757.2 -88979.523 133709.58 -89027.142 M 132804.819 -87550.952 132804.819 -88027.142 133281.009 -88074.761 133233.39 -88027.142 133185.771 -87931.904 133185.771 -87693.809 133233.39 -87598.571 133281.009 -87550.952 133376.247 -87503.333 133614.342 -87503.333 133709.58 -87550.952 133757.2 -87598.571 133804.819 -87693.809 133804.819 -87931.904 133757.2 -88027.142 133709.58 -88074.761 M 133804.819 -87027.142 133804.819 -86836.666 133757.2 -86741.428 133709.58 -86693.809 133566.723 -86598.571 133376.247 -86550.952 132995.295 -86550.952 132900.057 -86598.571 132852.438 -86646.19 132804.819 -86741.428 132804.819 -86931.904 132852.438 -87027.142 132900.057 -87074.761 132995.295 -87122.38 133233.39 -87122.38 133328.628 -87074.761 133376.247 -87027.142 133423.866 -86931.904 133423.866 -86741.428 133376.247 -86646.19 133328.628 -86598.571 133233.39 -86550.952 M 104499.58 -121237.143 104547.2 -121284.762 104594.819 -121427.619 104594.819 -121522.857 104547.2 -121665.714 104451.961 -121760.952 104356.723 -121808.571 104166.247 -121856.19 104023.39 -121856.19 103832.914 -121808.571 103737.676 -121760.952 103642.438 -121665.714 103594.819 -121522.857 103594.819 -121427.619 103642.438 -121284.762 103690.057 -121237.143 M 104594.819 -120284.762 104594.819 -120856.19 M 104594.819 -120570.476 103594.819 -120570.476 103737.676 -120665.714 103832.914 -120760.952 103880.533 -120856.19 M 104594.819 -117808.571 104594.819 -118379.999 M 104594.819 -118094.285 103594.819 -118094.285 103737.676 -118189.523 103832.914 -118284.761 103880.533 -118379.999 M 103928.152 -117379.999 104594.819 -117379.999 M 104023.39 -117379.999 103975.771 -117332.38 103928.152 -117237.142 103928.152 -117094.285 103975.771 -116999.047 104071.009 -116951.428 104594.819 -116951.428 M 132704.819 -121737.143 132228.628 -122070.476 M 132704.819 -122308.571 131704.819 -122308.571 131704.819 -121927.619 131752.438 -121832.381 131800.057 -121784.762 131895.295 -121737.143 132038.152 -121737.143 132133.39 -121784.762 132181.009 -121832.381 132228.628 -121927.619 132228.628 -122308.571 M 131800.057 -121356.19 131752.438 -121308.571 131704.819 -121213.333 131704.819 -120975.238 131752.438 -120880 131800.057 -120832.381 131895.295 -120784.762 131990.533 -120784.762 132133.39 -120832.381 132704.819 -121403.809 132704.819 -120784.762 M 131704.819 -118927.618 131704.819 -118308.571 132085.771 -118641.904 132085.771 -118499.047 132133.39 -118403.809 132181.009 -118356.19 132276.247 -118308.571 132514.342 -118308.571 132609.58 -118356.19 132657.2 -118403.809 132704.819 -118499.047 132704.819 -118784.761 132657.2 -118879.999 132609.58 -118927.618 M 132704.819 -117832.38 132704.819 -117641.904 132657.2 -117546.666 132609.58 -117499.047 132466.723 -117403.809 132276.247 -117356.19 131895.295 -117356.19 131800.057 -117403.809 131752.438 -117451.428 131704.819 -117546.666 131704.819 -117737.142 131752.438 -117832.38 131800.057 -117879.999 131895.295 -117927.618 132133.39 -117927.618 132228.628 -117879.999 132276.247 -117832.38 132323.866 -117737.142 132323.866 -117546.666 132276.247 -117451.428 132228.628 -117403.809 132133.39 -117356.19 M 131704.819 -116737.142 131704.819 -116641.904 131752.438 -116546.666 131800.057 -116499.047 131895.295 -116451.428 132085.771 -116403.809 132323.866 -116403.809 132514.342 -116451.428 132609.58 -116499.047 132657.2 -116546.666 132704.819 -116641.904 132704.819 -116737.142 132657.2 -116832.38 132609.58 -116879.999 132514.342 -116927.618 132323.866 -116975.237 132085.771 -116975.237 131895.295 -116927.618 131800.057 -116879.999 131752.438 -116832.38 131704.819 -116737.142 M 100861.905 -107134.819 100861.905 -106134.819 101100 -106134.819 101242.857 -106182.438 101338.095 -106277.676 101385.714 -106372.914 101433.333 -106563.39 101433.333 -106706.247 101385.714 -106896.723 101338.095 -106991.961 101242.857 -107087.2 101100 -107134.819 100861.905 -107134.819 M 102385.714 -107134.819 101814.286 -107134.819 M 102100 -107134.819 102100 -106134.819 102004.762 -106277.676 101909.524 -106372.914 101814.286 -106420.533 M 105148.095 -107134.819 105148.095 -106134.819 M 105719.523 -107134.819 105290.952 -106563.39 M 105719.523 -106134.819 105148.095 -106706.247 M 89463.809 -115739.104 89939.999 -115739.104 M 89368.571 -116024.819 89701.904 -115024.819 90035.237 -116024.819 M 90368.571 -115358.152 90368.571 -116024.819 M 90368.571 -115453.39 90416.19 -115405.771 90511.428 -115358.152 90654.285 -115358.152 90749.523 -115405.771 90797.142 -115501.009 90797.142 -116024.819 M 91130.476 -115358.152 91511.428 -115358.152 M 91273.333 -115024.819 91273.333 -115881.961 91320.952 -115977.2 91416.19 -116024.819 91511.428 -116024.819 M 92606.667 -115643.866 93368.572 -115643.866 M 92987.619 -116024.819 92987.619 -115262.914 M 162831.009 -124085.714 162878.628 -123942.857 162926.247 -123895.238 163021.485 -123847.619 163164.342 -123847.619 163259.58 -123895.238 163307.2 -123942.857 163354.819 -124038.095 163354.819 -124419.047 162354.819 -124419.047 162354.819 -124085.714 162402.438 -123990.476 162450.057 -123942.857 162545.295 -123895.238 162640.533 -123895.238 162735.771 -123942.857 162783.39 -123990.476 162831.009 -124085.714 162831.009 -124419.047 M 162354.819 -123561.904 162354.819 -122990.476 M 163354.819 -123276.19 162354.819 -123276.19 M 162450.057 -122704.761 162402.438 -122657.142 162354.819 -122561.904 162354.819 -122323.809 162402.438 -122228.571 162450.057 -122180.952 162545.295 -122133.333 162640.533 -122133.333 162783.39 -122180.952 163354.819 -122752.38 163354.819 -122133.333" fill="none" stroke-width="150"/><path d="M 121930 -119575 127000 -119575 M 121930 -129345 121930 -119575 M 121930 -129345 127000 -129345 M 124395 -129346 126825 -129346 M 124395 -130865 124395 -129346 M 124395 -130865 126825 -130865 M 125610 -130865 125610 -130106 M 126825 -130865 126825 -129346 M 127000 -129345 127000 -119575 M 89230.781 -127000 A 1600.781 1600.781 0 0 0 86029.219 -127000 1600.781 1600.781 0 0 0 89230.781 -127000" fill="none" stroke-width="120"/><path d="M 138570 -90385 138570 -95035 M 139205 -95670 143822.3 -95670 M 140970 -88210 140970 -89210 M 141470 -88710 140470 -88710 M 143822.3 -89750 139205 -89750 M 161070 -82460 161070 -81460 M 138570 -90385 A 634.999 634.999 0 0 0 139205 -89750 M 139205 -95670 A 635 635 0 0 0 138570 -95035 M 143822.3 -89750 A 11505.1471516 11505.1471516 0 1 0 143822.3 -95670" fill="none" stroke-width="127"/><path d="M 118660 -107450 115060 -107450 M 114535.816 -108177.205 A 2581.1818762 2581.1818762 0 0 0 115060 -107450 M 116860 -111900 A 2600 2600 0 0 0 114503.6 -110398.807 M 118660 -107450 A 2581.1818998 2581.1818998 0 0 0 119184.184 -108177.205 M 119216.4 -110398.807 A 2599.9995737 2599.9995737 0 0 0 116860 -111900 M 97940 -121070 97940 -125310 100180 -125310 M 99060 -120420 99060 -121070 M 99060 -125960 99060 -125310 M 100180 -121070 97940 -121070 M 100180 -121670 97940 -121670 M 100180 -121790 97940 -121790 M 100180 -121910 97940 -121910 M 100180 -125310 100180 -121070 M 132244 -107930 136996 -107930 M 132244.184 -107930 A 5590.000149 5590.000149 0 0 0 134619.928 -97280 M 134620.072 -97280 A 5590.0000005 5590.0000005 0 0 0 136995.816 -107930 M 139620 -102870 A 5000 5000 0 0 0 129620 -102870 5000 5000 0 0 0 139620 -102870 M 120420 -83820 121190 -83820 M 121190 -82450 121190 -85190 127730 -85190 M 127730 -82450 121190 -82450 M 127730 -85190 127730 -82450 M 128500 -83820 127730 -83820 M 112930 -116110 112930 -122650 113260 -122650 M 113260 -116110 112930 -116110 M 115340 -116110 115670 -116110 115670 -122650 115340 -122650 M 136470 -85620 136470 -82020 M 132020 -83820 A 2600 2600 0 0 0 133521.193 -81463.6 M 133521.193 -86176.4 A 2599.9995737 2599.9995737 0 0 0 132020 -83820 M 135742.795 -81495.816 A 2581.1818762 2581.1818762 0 0 0 136470 -82020 M 136470 -85620 A 2581.1818998 2581.1818998 0 0 0 135742.795 -86144.184 M 105610 -117070 105610 -121610 M 105625 -117070 105610 -117070 M 105625 -121610 105610 -121610 M 107750 -117070 107735 -117070 M 107750 -117070 107750 -121610 107735 -121610 M 133250 -116110 133580 -116110 M 133250 -122650 133250 -116110 M 133580 -122650 133250 -122650 M 135660 -122650 135990 -122650 M 135990 -116110 135660 -116110 M 135990 -122650 135990 -116110 M 100100 -109220 100750 -109220 M 100750 -108100 100750 -110340 104990 -110340 M 104150 -110340 104150 -108100 M 104270 -110340 104270 -108100 M 104390 -110340 104390 -108100 M 104990 -108100 100750 -108100 M 104990 -110340 104990 -108100 M 105640 -109220 104990 -109220 M 89230.781 -114300 A 1600.781 1600.781 0 0 0 86029.219 -114300 1600.781 1600.781 0 0 0 89230.781 -114300" fill="none" stroke-width="120"/><path d="M 144680 -128360 144680 -129360 M 161927.7 -121070 166545 -121070 M 164280 -122110 165280 -122110 M 164780 -122610 164780 -121610 M 166545 -115150 161927.7 -115150 M 167180 -120435 167180 -115785 M 161927.7 -121070 A 11505.1471516 11505.1471516 0 1 0 161927.7 -115150 M 166545 -115150 A 635 635 0 0 0 167180 -115785 M 167180 -120435 A 634.999 634.999 0 0 0 166545 -121070" fill="none" stroke-width="127"/></g></g><g id="DVuG0hSAtCo7A9updXP8_top_copper"><use xlink:href="#iPKNZDu8e6thTcgwnbmE_pad-10" x="124460" y="-121920"/><use xlink:href="#iPKNZDu8e6thTcgwnbmE_pad-10" x="124460" y="-124460"/><use xlink:href="#iPKNZDu8e6thTcgwnbmE_pad-10" x="124460" y="-127000"/><use xlink:href="#iPKNZDu8e6thTcgwnbmE_pad-11" x="87630" y="-127000"/><use xlink:href="#iPKNZDu8e6thTcgwnbmE_pad-12" x="160970" y="-92710"/><use xlink:href="#iPKNZDu8e6thTcgwnbmE_pad-12" x="140970" y="-92710"/><use xlink:href="#iPKNZDu8e6thTcgwnbmE_pad-13" x="119400" y="-109300"/><use xlink:href="#iPKNZDu8e6thTcgwnbmE_pad-14" x="116860" y="-109300"/><use xlink:href="#iPKNZDu8e6thTcgwnbmE_pad-14" x="114320" y="-109300"/><use xlink:href="#iPKNZDu8e6thTcgwnbmE_pad-15" x="99060" y="-119380"/><use xlink:href="#iPKNZDu8e6thTcgwnbmE_pad-16" x="99060" y="-127000"/><use xlink:href="#iPKNZDu8e6thTcgwnbmE_pad-17" x="134620" y="-104140"/><use xlink:href="#iPKNZDu8e6thTcgwnbmE_pad-18" x="134620" y="-101600"/><use xlink:href="#iPKNZDu8e6thTcgwnbmE_pad-19" x="119380" y="-83820"/><use xlink:href="#iPKNZDu8e6thTcgwnbmE_pad-16" x="129540" y="-83820"/><use xlink:href="#iPKNZDu8e6thTcgwnbmE_pad-19" x="114300" y="-115570"/><use xlink:href="#iPKNZDu8e6thTcgwnbmE_pad-16" x="114300" y="-123190"/><use xlink:href="#iPKNZDu8e6thTcgwnbmE_pad-13" x="134620" y="-86360"/><use xlink:href="#iPKNZDu8e6thTcgwnbmE_pad-14" x="134620" y="-83820"/><use xlink:href="#iPKNZDu8e6thTcgwnbmE_pad-14" x="134620" y="-81280"/><use xlink:href="#iPKNZDu8e6thTcgwnbmE_pad-19" x="106680" y="-116840"/><use xlink:href="#iPKNZDu8e6thTcgwnbmE_pad-19" x="106680" y="-121840"/><use xlink:href="#iPKNZDu8e6thTcgwnbmE_pad-19" x="134620" y="-123190"/><use xlink:href="#iPKNZDu8e6thTcgwnbmE_pad-16" x="134620" y="-115570"/><use xlink:href="#iPKNZDu8e6thTcgwnbmE_pad-15" x="106680" y="-109220"/><use xlink:href="#iPKNZDu8e6thTcgwnbmE_pad-16" x="99060" y="-109220"/><use xlink:href="#iPKNZDu8e6thTcgwnbmE_pad-11" x="87630" y="-114300"/><use xlink:href="#iPKNZDu8e6thTcgwnbmE_pad-12" x="144780" y="-118110"/><use xlink:href="#iPKNZDu8e6thTcgwnbmE_pad-12" x="164780" y="-118110"/></g><g id="DVuG0hSAtCo7A9updXP8_top_soldermask"><use xlink:href="#odKTohUqpMIksDrCd4JZ_pad-10" x="124460" y="-121920"/><use xlink:href="#odKTohUqpMIksDrCd4JZ_pad-10" x="124460" y="-124460"/><use xlink:href="#odKTohUqpMIksDrCd4JZ_pad-10" x="124460" y="-127000"/><use xlink:href="#odKTohUqpMIksDrCd4JZ_pad-11" x="87630" y="-127000"/><use xlink:href="#odKTohUqpMIksDrCd4JZ_pad-12" x="160970" y="-92710"/><use xlink:href="#odKTohUqpMIksDrCd4JZ_pad-12" x="140970" y="-92710"/><use xlink:href="#odKTohUqpMIksDrCd4JZ_pad-13" x="119400" y="-109300"/><use xlink:href="#odKTohUqpMIksDrCd4JZ_pad-14" x="116860" y="-109300"/><use xlink:href="#odKTohUqpMIksDrCd4JZ_pad-14" x="114320" y="-109300"/><use xlink:href="#odKTohUqpMIksDrCd4JZ_pad-15" x="99060" y="-119380"/><use xlink:href="#odKTohUqpMIksDrCd4JZ_pad-16" x="99060" y="-127000"/><use xlink:href="#odKTohUqpMIksDrCd4JZ_pad-17" x="134620" y="-104140"/><use xlink:href="#odKTohUqpMIksDrCd4JZ_pad-18" x="134620" y="-101600"/><use xlink:href="#odKTohUqpMIksDrCd4JZ_pad-19" x="119380" y="-83820"/><use xlink:href="#odKTohUqpMIksDrCd4JZ_pad-16" x="129540" y="-83820"/><use xlink:href="#odKTohUqpMIksDrCd4JZ_pad-19" x="114300" y="-115570"/><use xlink:href="#odKTohUqpMIksDrCd4JZ_pad-16" x="114300" y="-123190"/><use xlink:href="#odKTohUqpMIksDrCd4JZ_pad-13" x="134620" y="-86360"/><use xlink:href="#odKTohUqpMIksDrCd4JZ_pad-14" x="134620" y="-83820"/><use xlink:href="#odKTohUqpMIksDrCd4JZ_pad-14" x="134620" y="-81280"/><use xlink:href="#odKTohUqpMIksDrCd4JZ_pad-19" x="106680" y="-116840"/><use xlink:href="#odKTohUqpMIksDrCd4JZ_pad-19" x="106680" y="-121840"/><use xlink:href="#odKTohUqpMIksDrCd4JZ_pad-19" x="134620" y="-123190"/><use xlink:href="#odKTohUqpMIksDrCd4JZ_pad-16" x="134620" y="-115570"/><use xlink:href="#odKTohUqpMIksDrCd4JZ_pad-15" x="106680" y="-109220"/><use xlink:href="#odKTohUqpMIksDrCd4JZ_pad-16" x="99060" y="-109220"/><use xlink:href="#odKTohUqpMIksDrCd4JZ_pad-11" x="87630" y="-114300"/><use xlink:href="#odKTohUqpMIksDrCd4JZ_pad-12" x="144780" y="-118110"/><use xlink:href="#odKTohUqpMIksDrCd4JZ_pad-12" x="164780" y="-118110"/></g><g id="DVuG0hSAtCo7A9updXP8_top_drill1"><use xlink:href="#C2Nkd_aoA-cUEIzzrVXc_pad-1" x="99060" y="-109220"/><use xlink:href="#C2Nkd_aoA-cUEIzzrVXc_pad-1" x="99060" y="-119380"/><use xlink:href="#C2Nkd_aoA-cUEIzzrVXc_pad-1" x="99060" y="-127000"/><use xlink:href="#C2Nkd_aoA-cUEIzzrVXc_pad-1" x="106680" y="-109220"/><use xlink:href="#C2Nkd_aoA-cUEIzzrVXc_pad-1" x="106680" y="-116840"/><use xlink:href="#C2Nkd_aoA-cUEIzzrVXc_pad-1" x="106680" y="-121840"/><use xlink:href="#C2Nkd_aoA-cUEIzzrVXc_pad-1" x="114300" y="-115570"/><use xlink:href="#C2Nkd_aoA-cUEIzzrVXc_pad-1" x="114300" y="-123190"/><use xlink:href="#C2Nkd_aoA-cUEIzzrVXc_pad-1" x="114320" y="-109300"/><use xlink:href="#C2Nkd_aoA-cUEIzzrVXc_pad-1" x="116860" y="-109300"/><use xlink:href="#C2Nkd_aoA-cUEIzzrVXc_pad-1" x="119380" y="-83820"/><use xlink:href="#C2Nkd_aoA-cUEIzzrVXc_pad-1" x="119400" y="-109300"/><use xlink:href="#C2Nkd_aoA-cUEIzzrVXc_pad-1" x="124460" y="-121920"/><use xlink:href="#C2Nkd_aoA-cUEIzzrVXc_pad-1" x="124460" y="-124460"/><use xlink:href="#C2Nkd_aoA-cUEIzzrVXc_pad-1" x="124460" y="-127000"/><use xlink:href="#C2Nkd_aoA-cUEIzzrVXc_pad-1" x="129540" y="-83820"/><use xlink:href="#C2Nkd_aoA-cUEIzzrVXc_pad-1" x="134620" y="-81280"/><use xlink:href="#C2Nkd_aoA-cUEIzzrVXc_pad-1" x="134620" y="-83820"/><use xlink:href="#C2Nkd_aoA-cUEIzzrVXc_pad-1" x="134620" y="-86360"/><use xlink:href="#C2Nkd_aoA-cUEIzzrVXc_pad-1" x="134620" y="-115570"/><use xlink:href="#C2Nkd_aoA-cUEIzzrVXc_pad-1" x="134620" y="-123190"/><use xlink:href="#C2Nkd_aoA-cUEIzzrVXc_pad-2" x="134620" y="-101600"/><use xlink:href="#C2Nkd_aoA-cUEIzzrVXc_pad-2" x="134620" y="-104140"/><use xlink:href="#C2Nkd_aoA-cUEIzzrVXc_pad-3" x="87630" y="-114300"/><use xlink:href="#C2Nkd_aoA-cUEIzzrVXc_pad-3" x="87630" y="-127000"/><use xlink:href="#C2Nkd_aoA-cUEIzzrVXc_pad-4" x="140970" y="-92710"/><use xlink:href="#C2Nkd_aoA-cUEIzzrVXc_pad-4" x="144780" y="-118110"/><use xlink:href="#C2Nkd_aoA-cUEIzzrVXc_pad-4" x="160970" y="-92710"/><use xlink:href="#C2Nkd_aoA-cUEIzzrVXc_pad-4" x="164780" y="-118110"/></g><g id="DVuG0hSAtCo7A9updXP8_top_drill2"><path d="M 170500 -80500 170500 -130500 A 2000 2000 0 0 0 168500 -132500 L 85500 -132500 M 83500 -80500 A 2000 2000 0 0 0 85500 -78500 M 85500 -132500 A 2000 2000 0 0 0 83500 -130500 M 168500 -78500 A 2000 2000 0 0 0 170500 -80500 M 85500 -78500 168500 -78500 M 83500 -130500 83500 -80500" fill="none" stroke-width="50"/><path d="M 86082.77 -135639.84 86082.77 -133639.84 86558.96 -133639.84 86844.67 -133735.08 87035.15 -133925.55 87130.39 -134116.03 87225.63 -134496.98 87225.63 -134782.69 87130.39 -135163.65 87035.15 -135354.12 86844.67 -135544.6 86558.96 -135639.84 86082.77 -135639.84 M 88082.77 -135639.84 88082.77 -134306.5 M 88082.77 -134687.46 88178.01 -134496.98 88273.24 -134401.74 88463.72 -134306.5 88654.2 -134306.5 M 89320.86 -135639.84 89320.86 -134306.5 M 89320.86 -133639.84 89225.63 -133735.08 89320.86 -133830.31 89416.1 -133735.08 89320.86 -133639.84 89320.86 -133830.31 M 90558.96 -135639.84 90368.48 -135544.6 90273.24 -135354.12 90273.24 -133639.84 M 91606.58 -135639.84 91416.1 -135544.6 91320.86 -135354.12 91320.86 -133639.84 M 93892.29 -135639.84 93892.29 -133639.84 94558.96 -135068.41 95225.63 -133639.84 95225.63 -135639.84 M 97035.15 -135639.84 97035.15 -134592.22 96939.91 -134401.74 96749.44 -134306.5 96368.48 -134306.5 96178.01 -134401.74 M 97035.15 -135544.6 96844.67 -135639.84 96368.48 -135639.84 96178.01 -135544.6 96082.77 -135354.12 96082.77 -135163.65 96178.01 -134973.17 96368.48 -134877.93 96844.67 -134877.93 97035.15 -134782.69 M 97987.53 -134306.5 97987.53 -136306.5 M 97987.53 -134401.74 98178.01 -134306.5 98558.96 -134306.5 98749.44 -134401.74 98844.67 -134496.98 98939.91 -134687.46 98939.91 -135258.88 98844.67 -135449.36 98749.44 -135544.6 98558.96 -135639.84 98178.01 -135639.84 97987.53 -135544.6 M 99797.05 -135449.36 99892.29 -135544.6 99797.05 -135639.84 99701.82 -135544.6 99797.05 -135449.36 99797.05 -135639.84 M 99797.05 -134401.74 99892.29 -134496.98 99797.05 -134592.22 99701.82 -134496.98 99797.05 -134401.74 99797.05 -134592.22" fill="none" stroke-width="200"/></g><clipPath id="DVuG0hSAtCo7A9updXP8_top_outline"><path d="M 170500 -80500 170500 -130500 A 2000 2000 0 0 0 168500 -132500 L 85500 -132500 A 2000 2000 0 0 0 83500 -130500 L 83500 -80500 A 2000 2000 0 0 0 85500 -78500 L 168500 -78500 A 2000 2000 0 0 0 170500 -80500" fill="none" stroke-width="50"/></clipPath><mask id="DVuG0hSAtCo7A9updXP8_top_mech-mask"><g fill="#000" stroke="#000"><rect x="83500" y="-132500" width="87000" height="54000" fill="#fff"/><use xlink:href="#DVuG0hSAtCo7A9updXP8_top_drill1"/><use xlink:href="#DVuG0hSAtCo7A9updXP8_top_drill2"/></g></mask><mask id="DVuG0hSAtCo7A9updXP8_top_cf-mask"><g fill="#fff" stroke="#fff"><use xlink:href="#DVuG0hSAtCo7A9updXP8_top_soldermask"/></g></mask><mask id="DVuG0hSAtCo7A9updXP8_top_sm-mask"><g fill="#000" stroke="#000"><rect x="83500" y="-132500" width="87000" height="54000" fill="#fff"/><use xlink:href="#DVuG0hSAtCo7A9updXP8_top_soldermask"/></g></mask></defs><g transform="translate(0,-211000) scale(1,-1)"><g mask="url(#DVuG0hSAtCo7A9updXP8_top_mech-mask)" clip-path="url(#DVuG0hSAtCo7A9updXP8_top_outline)"><rect x="83500" y="-132500" width="87000" height="54000" fill="currentColor" class="DVuG0hSAtCo7A9updXP8_fr4"/><use xlink:href="#DVuG0hSAtCo7A9updXP8_top_copper" fill="currentColor" stroke="currentColor" class="DVuG0hSAtCo7A9updXP8_cu"/><use xlink:href="#DVuG0hSAtCo7A9updXP8_top_copper" fill="currentColor" stroke="currentColor" class="DVuG0hSAtCo7A9updXP8_cf" mask="url(#DVuG0hSAtCo7A9updXP8_top_cf-mask)"/><g mask="url(#DVuG0hSAtCo7A9updXP8_top_sm-mask)"><rect x="83500" y="-132500" width="87000" height="54000" fill="currentColor" class="DVuG0hSAtCo7A9updXP8_sm"/><use xlink:href="#DVuG0hSAtCo7A9updXP8_top_silkscreen" fill="currentColor" stroke="currentColor" class="DVuG0hSAtCo7A9updXP8_ss"/></g></g></g></svg>